<svg id="Layer_1" data-name="Layer 1" xmlns="http://www.w3.org/2000/svg" viewBox="0 0 512 512"><defs><style>.cls-1{fill:#dde5e8;}.cls-2{fill:#afc3c9;}.cls-3{fill:#198fd8;}</style></defs><title>wheel-cart-flat</title><path class="cls-1" d="M510.14,136.06,505.6,153.6l-6.66,25.6-16.64,64-6.66,25.6-12.1,46.46a57.58,57.58,0,0,1-55.74,43.14H137.34L115,268.8l-6.4-25.6-15.94-64-6.4-25.6L63.94,64H454.4a57.56,57.56,0,0,1,55.74,72.06Z"/><path class="cls-2" d="M505.6,153.6H112.29L76.42,9.71A12.79,12.79,0,0,0,64,0H12.8a12.8,12.8,0,0,0,0,25.6H54L155,431a38.23,38.23,0,0,1,24.15-8.57h.09L141,268.8H475.65l6.66-25.6H134.62l-16-64H498.94Z"/><path class="cls-2" d="M360.63,473.6a37.81,37.81,0,0,1,0-25.6H215.37a37.81,37.81,0,0,1,0,25.6Z"/><path class="cls-3" d="M396.8,512A51.2,51.2,0,1,1,448,460.8,51.26,51.26,0,0,1,396.8,512Z"/><path class="cls-3" d="M179.2,512a51.2,51.2,0,1,1,51.2-51.2A51.26,51.26,0,0,1,179.2,512Z"/></svg>