<svg width="1750" height="400" viewBox="0 0 1750 400" fill="none" xmlns="http://www.w3.org/2000/svg">
<path d="M1543.02 103H279.974L236.989 116.051L208 266.79L279.974 280.65L771.296 285L904.248 280.65L1035.7 285L1571.51 280.65L1588 116.051L1543.02 103Z" fill="white"/>
<path fill-rule="evenodd" clip-rule="evenodd" d="M1622 192.002V174.762C1622 105.754 1565.93 49.8038 1496.93 49.7349C1380.57 49.6187 1274.26 49.4486 1172.65 49.286C891.96 48.8368 647.151 48.445 325.664 49.4063C256.817 49.6122 201 105.505 201 174.353V192.002C201 261.038 256.964 317.002 326 317.002H1497C1566.04 317.002 1622 261.038 1622 192.002ZM1537.5 191.5V180C1537.5 152.386 1515.11 130 1487.5 130H333C305.386 130 283 152.386 283 180V191.5C283 219.114 305.386 241.5 333 241.5H1487.5C1515.11 241.5 1537.5 219.114 1537.5 191.5Z" fill="#E1E1E1"/>
<path d="M343.249 71.857C330.19 85.0945 344.661 106.098 360.898 97.6259C366.192 94.9784 371.663 87.036 371.663 81.9175C371.663 80.5055 369.193 76.446 366.192 72.916C358.956 64.7971 350.838 64.4441 343.249 71.857Z" fill="#E1E1E1"/>
<path d="M446.669 71.151C443.316 74.328 442.257 77.3285 442.257 83.3295C442.257 89.86 443.139 91.8015 447.728 95.6844C456.023 102.744 466.435 100.979 471.377 91.625C475.436 83.6825 474.73 77.6815 468.906 71.857C462.2 65.1501 452.846 64.7971 446.669 71.151Z" fill="#E1E1E1"/>
<path d="M547.971 71.8571C537.206 82.8 544.265 99.3908 559.619 99.3908C567.737 99.3908 570.914 96.9198 574.444 88.4479C577.268 81.388 575.856 76.9755 569.149 71.1511C561.913 65.1501 554.501 65.3266 547.971 71.8571Z" fill="#E1E1E1"/>
<path d="M651.391 71.1511C648.038 74.3281 646.979 77.3285 646.979 83.3295C646.979 89.86 647.861 91.8015 652.45 95.6845C661.098 103.097 670.981 101.332 676.099 91.4485C680.158 83.6825 679.452 77.6815 673.628 71.8571C666.922 65.1501 657.568 64.7971 651.391 71.1511Z" fill="#E1E1E1"/>
<path d="M754.458 71.8571C741.751 84.7415 755.517 105.215 772.636 98.6849C777.754 96.7434 782.872 88.6245 782.872 82.4471C782.872 80.5056 780.225 76.0931 776.872 72.7396C769.106 64.9737 761.694 64.6207 754.458 71.8571Z" fill="#E1E1E1"/>
<path d="M856.113 71.1511C852.76 74.3281 851.701 77.3285 851.701 83.3295C851.701 89.8599 852.583 91.8014 857.172 95.6844C865.643 102.921 875.879 100.979 880.821 91.2719C889.469 74.8575 868.996 58.2667 856.113 71.1511Z" fill="#E1E1E1"/>
<path d="M959.18 71.857C952.65 78.564 952.297 87.2125 958.297 93.743C966.592 102.568 978.24 102.215 984.241 92.684C988.829 85.271 987.417 78.0345 980.535 71.504C973.299 64.9735 965.886 65.15 959.18 71.857Z" fill="#E1E1E1"/>
<path d="M1060.83 71.1511C1052.01 79.7995 1056.25 96.5669 1067.89 99.5674C1084.31 103.627 1094.9 81.9175 1082.01 70.6216C1075.66 65.3266 1066.48 65.3266 1060.83 71.1511Z" fill="#E1E1E1"/>
<path d="M1163.9 71.857C1157.37 78.564 1157.02 87.2125 1163.02 93.743C1171.31 102.568 1182.96 102.215 1188.96 92.684C1193.55 85.271 1192.14 78.0345 1185.26 71.504C1178.02 64.9735 1170.61 65.15 1163.9 71.857Z" fill="#E1E1E1"/>
<path d="M1265.56 71.1512C1259.2 77.3286 1259.38 89.86 1265.73 95.861C1274.73 104.156 1287.26 100.45 1291.15 88.6245C1296.62 72.3866 1277.38 59.1492 1265.56 71.1512Z" fill="#E1E1E1"/>
<path d="M1368.62 72.21C1361.39 79.7995 1361.56 88.2714 1368.98 95.1549C1378.15 103.627 1389.98 101.509 1394.57 90.3894C1396.68 85.271 1396.68 83.506 1394.57 78.3875C1389.45 65.8561 1377.27 63.0321 1368.62 72.21Z" fill="#E1E1E1"/>
<path d="M1475.57 68.8566C1469.75 72.0336 1467.63 75.9165 1467.63 83.8589C1467.63 93.5663 1473.46 100.273 1481.75 100.273C1489.52 100.273 1493.57 97.6258 1497.28 90.0364C1500.1 84.0354 1500.1 83.153 1497.46 77.505C1492.69 67.4446 1484.22 64.0911 1475.57 68.8566Z" fill="#E1E1E1"/>
<path d="M299.305 120.924C295.246 122.336 288.716 128.866 289.598 130.455C290.128 131.161 289.775 132.22 288.716 132.926C285.539 134.867 286.774 138.75 292.422 145.281C299.481 153.223 306.188 153.576 313.6 146.34C321.718 138.221 320.306 126.925 310.423 121.806C306.364 119.512 303.54 119.335 299.305 120.924Z" fill="#E1E1E1"/>
<path d="M400.783 121.453C383.488 128.337 393.194 155.341 411.372 150.752C420.02 148.634 424.609 135.044 419.314 127.454C414.373 120.571 407.843 118.453 400.783 121.453Z" fill="#E1E1E1"/>
<path d="M502.438 121.983C499.968 123.042 496.614 126.925 494.673 130.278C491.496 136.103 491.496 136.456 494.32 141.751C500.85 153.047 509.851 154.812 518.322 146.34C525.558 139.103 525.381 130.455 517.969 124.277C511.968 119.159 508.792 118.629 502.438 121.983Z" fill="#E1E1E1"/>
<path d="M604.623 121.983C595.093 126.925 593.681 138.927 601.975 147.222C608.152 153.399 615.918 152.87 622.448 145.986C626.507 141.574 627.213 139.633 626.33 135.044C624.389 124.101 613.27 117.394 604.623 121.983Z" fill="#E1E1E1"/>
<path d="M707.16 121.806C704.689 123.042 701.336 126.925 699.395 130.278C696.218 136.103 696.218 136.456 699.042 141.751C700.807 144.575 703.454 148.105 704.866 149.164C713.161 155.871 728.162 146.693 728.162 135.22C728.162 124.807 716.161 117.217 707.16 121.806Z" fill="#E1E1E1"/>
<path d="M809.345 121.983C803.697 124.807 799.814 132.749 801.403 138.574C802.991 145.457 810.227 151.458 816.404 151.458C824.522 151.458 832.111 143.339 831.405 135.75C830.523 124.983 818.345 117.394 809.345 121.983Z" fill="#E1E1E1"/>
<path d="M911.882 121.806C909.411 123.042 906.058 126.748 904.293 129.925C901.116 135.573 901.116 135.926 904.646 142.633C908.352 150.046 913.823 152.694 921.059 150.752C927.942 148.811 931.472 144.928 932.354 137.868C933.06 132.22 932.531 129.925 929.177 126.219C924.059 120.571 917.529 118.982 911.882 121.806Z" fill="#E1E1E1"/>
<path d="M1014.42 122.336C1004.36 126.748 1002.77 138.574 1011.42 147.222C1017.42 153.223 1025.36 152.87 1031.89 146.34C1038.42 139.809 1038.42 133.632 1032.24 126.925C1026.07 120.394 1021.66 119.159 1014.42 122.336Z" fill="#E1E1E1"/>
<path d="M1117.84 123.042C1102.13 130.984 1110.96 154.988 1127.9 150.752C1138.84 147.928 1142.9 135.22 1135.84 126.395C1131.43 120.571 1124.9 119.512 1117.84 123.042Z" fill="#E1E1E1"/>
<path d="M1218.96 122.512C1209.08 126.748 1207.67 138.75 1216.14 147.222C1222.14 153.223 1230.08 152.87 1236.61 146.34C1242.97 139.986 1243.14 133.985 1237.32 127.101C1232.02 120.924 1226.38 119.335 1218.96 122.512Z" fill="#E1E1E1"/>
<path d="M1322.56 123.042C1308.8 129.925 1313.56 151.458 1328.91 151.458C1341.62 151.458 1348.68 136.632 1340.56 126.395C1336.15 120.571 1329.62 119.335 1322.56 123.042Z" fill="#E1E1E1"/>
<path d="M1419.8 124.807C1413.63 129.749 1413.98 141.574 1420.51 147.222C1427.39 153.047 1434.81 152.694 1441.33 146.34C1447.69 139.986 1447.86 133.985 1441.86 126.925C1438.33 122.512 1435.86 121.453 1430.57 121.453C1426.69 121.453 1422.27 122.865 1419.8 124.807Z" fill="#E1E1E1"/>
<path d="M1523.93 124.807C1520.58 127.454 1519.69 129.925 1519.69 136.456C1519.69 142.986 1520.58 145.457 1523.93 148.105C1533.81 156.223 1548.81 149.164 1548.81 136.456C1548.81 123.748 1533.81 116.688 1523.93 124.807Z" fill="#E1E1E1"/>
<path d="M243.712 177.05C236.3 184.287 238.418 195.053 247.948 199.113C258.713 203.525 270.185 192.053 265.773 181.286C261.714 171.755 250.948 169.637 243.712 177.05Z" fill="#E1E1E1"/>
<path d="M344.308 177.05C333.013 188.17 346.073 205.643 360.545 198.76C367.604 195.406 370.781 187.993 368.134 181.286C364.075 171.579 351.721 169.461 344.308 177.05Z" fill="#E1E1E1"/>
<path d="M448.434 177.05C437.845 187.464 449.493 205.114 462.906 198.76C465.553 197.524 468.906 194.171 470.142 191.523C476.495 178.109 458.847 166.46 448.434 177.05Z" fill="#E1E1E1"/>
<path d="M549.03 177.05C537.735 188.17 550.795 205.643 565.267 198.76C567.914 197.524 571.091 194.347 572.326 191.876C578.856 178.109 559.796 166.107 549.03 177.05Z" fill="#E1E1E1"/>
<path d="M653.156 177.05C646.097 183.934 647.508 193.994 655.98 198.407C670.275 205.82 683.158 187.287 670.981 176.697C664.804 171.402 658.45 171.579 653.156 177.05Z" fill="#E1E1E1"/>
<path d="M755.517 177.05C750.222 182.169 749.693 190.111 754.458 195.759C758.87 201.231 770.695 201.584 775.989 196.289C781.46 190.817 780.931 181.816 775.107 176.697C768.753 171.402 760.988 171.402 755.517 177.05Z" fill="#E1E1E1"/>
<path d="M857.878 177.05C849.759 184.993 853.819 197.877 864.937 200.172C877.997 202.643 885.762 184.64 875.35 176.344C869.173 171.402 863.172 171.755 857.878 177.05Z" fill="#E1E1E1"/>
<path d="M960.239 177.05C951.767 185.346 956.179 198.23 968.18 200.172C977.181 201.584 984.064 195.936 984.064 186.758C984.064 174.05 969.239 168.049 960.239 177.05Z" fill="#E1E1E1"/>
<path d="M1062.6 177.05C1059.78 179.698 1058.19 183.404 1058.19 186.758C1058.19 193.112 1064.89 200.878 1070.72 200.878C1072.66 200.878 1076.72 199.466 1079.54 197.877C1083.95 195.23 1084.66 193.641 1084.66 187.464C1084.66 174.226 1071.42 168.049 1062.6 177.05Z" fill="#E1E1E1"/>
<path d="M1166.02 175.638C1163.9 177.403 1161.78 181.816 1161.25 185.346C1159.14 198.054 1173.61 205.467 1184.2 197.171C1194.08 189.405 1187.73 172.638 1174.67 172.638C1172.02 172.638 1168.14 174.05 1166.02 175.638Z" fill="#E1E1E1"/>
<path d="M1267.32 177.05C1257.97 186.228 1265.38 202.29 1278.09 200.348C1286.38 198.936 1289.38 195.406 1289.38 186.934C1289.38 174.226 1275.97 168.225 1267.32 177.05Z" fill="#E1E1E1"/>
<path d="M1372.68 173.873C1369.86 174.932 1365.27 183.757 1365.27 188.17C1365.27 193.641 1373.21 200.878 1379.39 200.878C1392.1 200.878 1398.63 183.934 1388.92 176.344C1384.51 172.814 1377.8 171.755 1372.68 173.873Z" fill="#E1E1E1"/>
<path d="M1473.81 177.05C1470.98 179.698 1469.4 183.404 1469.4 186.758C1469.4 193.112 1476.1 200.878 1481.57 200.878C1487.75 200.878 1493.75 197.701 1495.16 193.465C1497.46 186.934 1496.05 180.933 1491.28 176.521C1485.46 171.402 1479.1 171.579 1473.81 177.05Z" fill="#E1E1E1"/>
<path d="M1576.35 176.521C1569.64 182.698 1568.93 190.288 1574.23 196.112C1582.88 205.467 1598.23 199.466 1598.23 186.758C1598.23 180.051 1591.35 172.638 1585.17 172.638C1582.7 172.638 1578.82 174.403 1576.35 176.521Z" fill="#E1E1E1"/>
<path d="M299.305 225.235C289.951 228.235 287.833 238.119 294.893 245.708C300.187 251.533 306.894 251.709 312.541 245.885C317.306 241.296 318.189 234.942 314.835 230.353C312.188 227 303.187 223.999 299.305 225.235Z" fill="#E1E1E1"/>
<path d="M503.144 225.588C494.673 228.765 493.085 238.649 499.614 245.708C504.909 251.533 511.615 251.709 517.263 245.885C522.028 241.296 522.91 234.942 519.557 230.353C516.557 226.47 507.733 223.999 503.144 225.588Z" fill="#E1E1E1"/>
<path d="M812.874 225.058C799.815 229.823 801.932 250.297 815.698 250.297C820.463 250.297 830.523 241.649 830.523 237.589C830.523 234.236 823.11 225.94 819.051 225.058C817.11 224.528 814.286 224.528 812.874 225.058Z" fill="#E1E1E1"/>
<path d="M911.705 226.117C908.176 227.882 907.117 229.824 906.764 236.531C906.234 243.414 906.94 245.179 910.294 247.473C915.941 251.533 921.765 251.003 926.707 245.885C932.531 240.237 932.178 235.295 926.001 228.941C920.177 223.293 918.235 222.764 911.705 226.117Z" fill="#E1E1E1"/>
<path d="M1016.71 225.588C1003.65 230.706 1006.83 250.297 1020.6 250.297C1025.18 250.297 1035.24 241.649 1035.24 237.589C1035.24 234.236 1027.83 226.117 1023.77 225.058C1021.83 224.529 1018.65 224.705 1016.71 225.588Z" fill="#E1E1E1"/>
<path d="M1118.37 226.117C1110.25 230.176 1110.07 244.12 1118.02 248.356C1124.02 251.709 1130.02 250.65 1133.9 245.708C1138.84 239.354 1138.49 235.118 1132.49 228.941C1126.66 223.293 1124.72 222.764 1118.37 226.117Z" fill="#E1E1E1"/>
<path d="M1221.44 225.588C1208.02 230.883 1211.38 250.474 1225.67 250.297C1230.97 250.121 1235.02 247.473 1238.03 241.825C1242.79 232.824 1231.32 221.528 1221.44 225.588Z" fill="#E1E1E1"/>
<path d="M1324.68 225.058C1319.74 226.999 1317.27 231.059 1317.09 237.06C1316.91 245.002 1321.68 250.297 1329.09 250.297C1335.44 250.297 1339.68 246.414 1341.44 239.354C1342.5 235.471 1341.62 233.53 1337.39 229.117C1332.09 223.822 1329.8 223.116 1324.68 225.058Z" fill="#E1E1E1"/>
<path d="M397.607 228.764C393.547 233.177 393.9 242.531 398.136 246.767C403.254 251.886 409.96 251.18 415.961 244.826C421.961 238.295 422.314 234.765 417.549 229.47C412.961 224.528 401.666 224.175 397.607 228.764Z" fill="#E1E1E1"/>
<path d="M602.328 228.765C595.446 236.354 601.093 250.297 610.976 250.297C616.094 250.297 625.801 241.119 625.801 236.354C625.801 227.353 608.505 221.881 602.328 228.765Z" fill="#E1E1E1"/>
<path d="M703.63 228.059C702.395 229.471 701.16 233 700.807 235.824C699.924 242.531 706.631 250.297 713.161 250.297C718.279 250.297 726.397 243.237 726.397 238.825C726.397 235.295 723.044 228.765 720.396 227C717.043 224.705 705.748 225.411 703.63 228.059Z" fill="#E1E1E1"/>
<path d="M1420.86 229.117C1413.45 237.413 1419.1 250.297 1430.04 250.297C1436.39 250.297 1439.22 248.356 1442.57 242.002C1448.75 230.529 1429.86 219.234 1420.86 229.117Z" fill="#E1E1E1"/>
<path d="M1524.99 229.118C1517.75 237.236 1523.22 250.297 1533.81 250.297C1540.7 250.297 1545.81 245.002 1545.81 237.942C1545.81 230.883 1540.7 225.588 1533.81 225.588C1530.46 225.588 1526.93 227 1524.99 229.118Z" fill="#E1E1E1"/>
<path d="M346.779 281.891C340.602 288.245 340.426 291.422 346.073 297.07C351.368 302.541 357.545 302.718 362.486 297.423C367.604 292.128 367.428 286.48 361.957 281.185C356.309 275.537 353.133 275.713 346.779 281.891Z" fill="#E1E1E1"/>
<path d="M450.375 281.008C442.081 289.127 446.14 301.482 457.082 301.482C464.141 301.482 468.73 296.893 468.73 289.833C468.73 283.126 465.73 279.067 459.553 277.655C455.846 276.772 453.729 277.478 450.375 281.008Z" fill="#E1E1E1"/>
<path d="M551.677 281.891C545.501 288.068 545.148 290.539 550.089 296.893C554.678 302.717 562.09 302.894 567.208 297.423C571.973 292.481 572.15 287.186 568.09 282.42C562.619 276.066 557.501 275.89 551.677 281.891Z" fill="#E1E1E1"/>
<path d="M654.921 281.185C646.802 289.127 651.038 301.482 661.804 301.482C668.863 301.482 673.452 296.893 673.452 289.833C673.452 283.656 672.04 281.538 666.922 278.714C661.451 275.89 659.686 276.243 654.921 281.185Z" fill="#E1E1E1"/>
<path d="M757.988 281.891C751.987 288.068 751.634 290.539 756.576 296.893C758.87 299.893 761.87 301.482 765.223 301.482C770.694 301.482 777.577 294.599 777.577 289.127C777.577 285.95 768.224 276.772 764.87 276.772C763.988 276.772 760.811 279.067 757.988 281.891Z" fill="#E1E1E1"/>
<path d="M859.643 281.185C851.524 289.127 855.76 301.482 866.702 301.482C877.82 301.482 882.409 287.362 873.585 280.479C867.584 275.713 864.761 275.89 859.643 281.185Z" fill="#E1E1E1"/>
<path d="M962.709 281.891C956.709 288.068 956.356 290.539 961.298 296.893C963.592 299.893 966.592 301.482 969.945 301.482C975.416 301.482 982.299 294.599 982.299 289.127C982.299 285.95 972.946 276.772 969.592 276.772C968.71 276.772 965.533 279.067 962.709 281.891Z" fill="#E1E1E1"/>
<path d="M1064.36 281.185C1056.25 289.127 1060.48 301.482 1071.42 301.482C1082.54 301.482 1087.13 287.362 1078.31 280.479C1072.31 275.713 1069.48 275.89 1064.36 281.185Z" fill="#E1E1E1"/>
<path d="M1171.14 279.067C1168.67 280.302 1165.67 283.303 1164.25 285.95C1161.78 290.363 1161.78 291.069 1165.14 295.658C1170.43 302.718 1178.37 303.247 1183.32 296.893C1188.08 290.892 1188.08 287.186 1183.14 282.597C1176.96 277.125 1175.73 276.772 1171.14 279.067Z" fill="#E1E1E1"/>
<path d="M1268.56 280.832C1264.85 285.244 1264.14 292.48 1267.14 297.069C1271.03 302.894 1280.91 303.247 1284.79 297.599C1290.79 289.127 1286.03 278.537 1276.32 278.537C1272.97 278.537 1269.62 279.596 1268.56 280.832Z" fill="#E1E1E1"/>
<path d="M1370.92 283.303C1368.98 286.127 1367.39 288.951 1367.39 290.01C1367.39 294.599 1374.62 301.482 1379.21 301.482C1389.63 301.482 1394.57 291.422 1388.21 283.303C1383.1 276.772 1375.51 276.772 1370.92 283.303Z" fill="#E1E1E1"/>
<path d="M1474.69 282.42C1470.28 287.186 1470.1 292.834 1474.34 297.952C1480.69 305.894 1494.1 300.599 1494.1 290.186C1494.1 279.596 1481.93 274.654 1474.69 282.42Z" fill="#E1E1E1"/>
<path fill-rule="evenodd" clip-rule="evenodd" d="M1647.5 214.5V185C1647.5 102.157 1580.34 35 1497.5 35H323C240.157 35 173 102.157 173 185V214.5C173 297.343 240.157 364.5 323 364.5H1497.5C1580.34 364.5 1647.5 297.343 1647.5 214.5ZM1617.5 186V180C1617.5 110.964 1561.54 55 1492.5 55H328C258.964 55 203 110.964 203 180V186C203 255.036 258.964 311 328 311H1492.5C1561.54 311 1617.5 255.036 1617.5 186Z" fill="#55557B"/>
<path fill-rule="evenodd" clip-rule="evenodd" d="M36 39C36 36.2386 38.2386 34 41 34H361C363.761 34 366 36.2386 366 39V254C366 256.761 363.761 259 361 259H41C38.2386 259 36 256.761 36 254V39ZM106.5 120C106.5 117.239 108.739 115 111.5 115H131.5C134.261 115 136.5 117.239 136.5 120V177.5C136.5 180.261 134.261 182.5 131.5 182.5H111.5C108.739 182.5 106.5 180.261 106.5 177.5V120ZM270.5 115C267.739 115 265.5 117.239 265.5 120V177.5C265.5 180.261 267.739 182.5 270.5 182.5H290.5C293.261 182.5 295.5 180.261 295.5 177.5V120C295.5 117.239 293.261 115 290.5 115H270.5Z" fill="#47C8C0"/>
<path d="M254.792 265H147.208C144.889 265 142.874 266.595 142.342 268.853L119.949 363.853C119.209 366.992 121.591 370 124.816 370H277.184C280.409 370 282.791 366.992 282.051 363.853L259.658 268.853C259.126 266.595 257.111 265 254.792 265Z" fill="#47C8C0"/>
<path fill-rule="evenodd" clip-rule="evenodd" d="M275.748 265C277.074 265 278.346 265.527 279.284 266.464L332.287 319.468C334.24 321.421 334.24 324.586 332.287 326.539L307.539 351.288C305.586 353.24 302.42 353.24 300.468 351.288L280.54 331.36C279.859 330.679 279.388 329.815 279.187 328.872L266.796 271.048C266.129 267.935 268.501 265 271.685 265H275.748Z" fill="#47C8C0"/>
<path fill-rule="evenodd" clip-rule="evenodd" d="M126.074 265C124.748 265 123.476 265.527 122.539 266.464L69.5349 319.468C67.5823 321.421 67.5823 324.586 69.5349 326.539L94.2837 351.288C96.2363 353.24 99.4021 353.24 101.355 351.288L121.282 331.36C121.964 330.679 122.434 329.815 122.636 328.872L135.027 271.048C135.694 267.935 133.321 265 130.138 265H126.074Z" fill="#47C8C0"/>
<path d="M1471 228.465V28.1973C1505.02 14.3767 1524.06 14.827 1558.07 28.1973V228.465H1471Z" fill="#47C8C0"/>
<path d="M1471 378.423V282.643H1514.54H1558.07V378.423C1525.32 387.193 1506.4 388.199 1471 378.423Z" fill="#47C8C0"/>
<rect x="1471" y="250.194" width="87.0728" height="9.67474" fill="#47C8C0"/>
<path fill-rule="evenodd" clip-rule="evenodd" d="M1569.68 339.385L1597.78 290.724L1569.68 274.504V339.385ZM1569.68 248.206L1609.16 271.001L1614 262.622L1569.68 237.035V248.206ZM1569.68 211.944L1624.87 243.804L1725 70.3675C1702.23 41.7804 1685.96 31.8717 1649.59 26.8311L1569.68 165.24V211.944Z" fill="#47C8C0"/>
</svg>
