<svg width="1500" height="1181" viewBox="0 0 1500 1181" fill="none" xmlns="http://www.w3.org/2000/svg">
<g clip-path="url(#clip0_16_796)">
<path d="M1380.5 83H117L74 147.5L45 892.5L117 961L608.5 982.5L757.5 1085L873 982.5L1409 961L1425.5 147.5L1380.5 83Z" fill="white"/>
<path fill-rule="evenodd" clip-rule="evenodd" d="M1459.5 872V157.241C1459.5 88.3064 1403.55 32.3918 1334.61 32.1434C1218.19 31.7239 1111.82 31.1093 1010.15 30.522C729.095 28.8982 484.014 27.4822 161.908 30.97C93.5547 31.7101 38.5 87.4149 38.5 155.772V872C38.5 941.036 94.4644 997 163.5 997H618.679C620.005 997 621.277 997.527 622.214 998.464L737.143 1113.39C743.001 1119.25 752.499 1119.25 758.357 1113.39L873.286 998.464C874.223 997.527 875.495 997 876.821 997H1334.5C1403.54 997 1459.5 941.036 1459.5 872ZM1375 871.5V160C1375 132.386 1352.61 110 1325 110H170.5C142.886 110 120.5 132.386 120.5 160V871.5C120.5 899.114 142.886 921.5 170.5 921.5H612.329C638.85 921.5 664.286 932.036 683.039 950.789L737.143 1004.89C743.001 1010.75 752.499 1010.75 758.357 1004.89L812.461 950.789C831.214 932.036 856.65 921.5 883.171 921.5H1325C1352.61 921.5 1375 899.114 1375 871.5Z" fill="#E1E1E1"/>
<path d="M78.0356 109.311C74.3294 113.194 73.2705 116.018 73.2705 122.372C73.2705 131.903 76.4472 136.316 86.1539 139.493C91.9779 141.434 93.2133 141.258 97.9783 137.904C105.391 132.609 108.567 127.491 108.567 120.607C108.567 105.958 88.2717 98.5449 78.0356 109.311Z" fill="#E1E1E1"/>
<path d="M178.631 109.311C170.16 118.136 173.16 133.668 184.279 138.257C193.809 142.14 196.28 141.787 203.692 134.727C213.046 125.902 213.752 117.43 205.81 109.488C201.398 105.252 199.103 104.369 192.044 104.369C184.808 104.369 182.514 105.252 178.631 109.311Z" fill="#E1E1E1"/>
<path d="M282.757 109.311C279.051 113.194 277.992 116.018 277.992 122.196C277.992 131.903 281.522 137.198 289.64 139.493C302.171 143.023 313.289 133.845 313.289 120.254C313.289 105.958 292.817 98.7213 282.757 109.311Z" fill="#E1E1E1"/>
<path d="M383.353 109.311C374 119.019 378.412 135.257 391.824 139.669C396.59 141.258 398.884 141.081 403.119 138.963C416.179 132.08 419.532 118.666 410.532 109.488C406.12 105.252 403.825 104.369 396.766 104.369C389.53 104.369 387.236 105.252 383.353 109.311Z" fill="#E1E1E1"/>
<path d="M487.303 109.488C482.714 114.253 482.361 115.665 483.067 123.608C484.126 133.492 486.244 136.492 495.421 139.493C502.657 141.964 507.422 140.375 513.069 133.845C517.305 129.079 518.54 124.49 517.305 117.607C514.658 104.193 496.833 99.6038 487.303 109.488Z" fill="#E1E1E1"/>
<path d="M589.84 109.311C580.486 119.019 584.898 135.256 598.311 139.669C605.371 141.963 612.43 139.139 618.607 131.374C623.725 124.843 622.49 114.077 615.96 108.429C608.9 102.251 596.017 102.781 589.84 109.311Z" fill="#E1E1E1"/>
<path d="M692.907 108.958C682.494 117.783 686.906 135.08 700.672 139.669C714.438 144.258 726.792 129.079 720.968 114.783C716.203 103.487 702.614 100.663 692.907 108.958Z" fill="#E1E1E1"/>
<path d="M794.915 109.488C785.208 119.195 789.444 135.257 803.033 139.669C810.093 141.964 817.152 139.14 823.152 131.55C832.153 120.078 823.329 104.546 807.798 104.369C801.621 104.369 799.151 105.428 794.915 109.488Z" fill="#E1E1E1"/>
<path d="M897.276 109.488C887.569 119.195 891.805 135.257 905.394 139.669C919.16 144.258 932.749 127.844 925.866 114.959C919.689 103.31 906.1 100.663 897.276 109.488Z" fill="#E1E1E1"/>
<path d="M999.99 109.488C989.754 119.019 993.989 135.08 1007.75 139.669C1021.34 144.081 1035.29 128.373 1029.82 114.783C1025.23 103.663 1009.17 100.839 999.99 109.488Z" fill="#E1E1E1"/>
<path d="M1102 109.488C1092.29 119.372 1096.53 135.257 1110.12 139.669C1115.41 141.434 1117.18 141.257 1122.12 138.434C1125.12 136.492 1129.18 132.08 1130.94 128.55C1133.94 122.196 1133.94 121.666 1130.59 115.312C1124.59 103.487 1110.82 100.663 1102 109.488Z" fill="#E1E1E1"/>
<path d="M1208.95 106.487C1202.24 110.194 1199.24 115.312 1199.24 122.549C1199.24 134.727 1213.01 144.435 1222.89 139.316C1234.36 133.492 1238.42 124.314 1233.66 114.43C1229.42 105.252 1217.6 101.545 1208.95 106.487Z" fill="#E1E1E1"/>
<path d="M1308.48 109.311C1298.6 118.136 1301.95 133.492 1315.19 138.963C1322.25 141.964 1325.96 141.081 1333.02 135.257C1336.9 132.08 1338.13 129.432 1338.31 123.431C1339.02 107.017 1320.84 98.3683 1308.48 109.311Z" fill="#E1E1E1"/>
<path d="M1413.67 106.487C1408.37 109.664 1405.55 112.665 1404.84 116.724C1404.49 118.666 1403.79 120.96 1403.08 121.843C1402.55 122.725 1402.9 123.961 1403.79 124.667C1404.84 125.196 1405.2 126.785 1404.67 128.02C1403.43 131.021 1414.55 140.199 1420.38 140.905C1425.67 141.611 1435.91 134.904 1438.91 128.55C1445.79 114.43 1427.61 98.5449 1413.67 106.487Z" fill="#E1E1E1"/>
<path d="M28.9727 158.202C14.148 166.32 20.678 189.089 37.9735 189.089C52.7982 189.089 60.2105 169.497 49.2685 159.437C44.1504 155.025 35.8556 154.495 28.9727 158.202Z" fill="#E1E1E1"/>
<path d="M131.334 158.202C125.51 161.378 122.333 168.615 123.745 175.851C125.157 183.97 129.922 187.677 139.805 188.559C147.041 189.265 148.982 188.736 153.218 184.853C160.63 177.969 160.277 167.556 152.512 160.319C146.688 155.025 138.746 154.142 131.334 158.202Z" fill="#E1E1E1"/>
<path d="M235.46 158.025C226.106 163.32 224.694 176.734 232.459 185.029C238.107 191.207 250.284 190.677 256.638 184.147C260.873 180.087 261.579 177.969 261.226 171.615C260.873 166.85 259.461 162.79 257.344 160.496C252.755 155.907 241.46 154.671 235.46 158.025Z" fill="#E1E1E1"/>
<path d="M336.938 157.495C334.997 158.554 331.997 161.731 330.232 164.555C326.526 170.909 327.584 177.44 333.408 184.323C339.056 190.854 351.939 191.207 358.293 184.676C364.47 178.675 364.47 166.673 358.469 161.025C353.704 156.436 342.586 154.671 336.938 157.495Z" fill="#E1E1E1"/>
<path d="M440.534 157.848C430.827 163.496 428.886 175.498 436.475 183.794C441.77 189.971 448.829 191.03 457.653 187.5C467.183 183.617 469.654 170.733 462.771 162.084C458.183 156.083 447.241 154.142 440.534 157.848Z" fill="#E1E1E1"/>
<path d="M541.836 157.672C536.012 161.025 534.071 164.908 533.895 172.498C533.895 185.382 546.072 193.148 558.073 188.206C573.603 181.676 569.544 158.201 552.425 156.26C548.543 155.907 543.778 156.436 541.836 157.672Z" fill="#E1E1E1"/>
<path d="M644.903 158.201C631.314 165.614 636.255 189.089 651.433 189.442C663.61 189.795 671.376 183.441 671.376 173.204C671.552 159.79 657.081 151.495 644.903 158.201Z" fill="#E1E1E1"/>
<path d="M746.382 157.672C737.911 161.731 736.146 175.322 743.029 183.441C753.441 195.796 772.148 189.089 772.148 173.204C772.148 165.791 769.501 161.378 763.324 158.201C757.5 155.201 751.853 155.024 746.382 157.672Z" fill="#E1E1E1"/>
<path d="M849.978 158.025C840.624 163.32 838.33 175.145 845.389 183.441C855.978 195.972 876.274 189.265 876.274 173.204C876.274 165.791 873.627 161.378 867.45 158.201C861.273 155.024 855.625 154.848 849.978 158.025Z" fill="#E1E1E1"/>
<path d="M952.692 157.672C945.103 161.378 942.985 175.322 948.809 182.735C954.104 189.442 960.104 191.383 967.34 189.089C977.047 185.912 981.812 173.557 976.87 164.202C972.988 156.966 960.81 153.789 952.692 157.672Z" fill="#E1E1E1"/>
<path d="M1055.41 158.025C1049.76 160.496 1045.7 167.026 1045.7 174.086C1045.7 179.558 1053.29 188.383 1059.11 189.795C1069.88 192.619 1081 184.147 1081 173.204C1081 165.791 1078.35 161.378 1072.17 158.201C1065.99 155.024 1062.47 155.024 1055.41 158.025Z" fill="#E1E1E1"/>
<path d="M1159.18 157.495C1150 160.143 1146.82 174.263 1153.53 182.735C1158.83 189.442 1164.83 191.383 1172.06 189.089C1178.94 186.794 1183.36 180.617 1183.36 173.204C1183.36 165.791 1180.71 161.378 1174.53 158.201C1168.89 155.201 1167.3 155.201 1159.18 157.495Z" fill="#E1E1E1"/>
<path d="M1260.13 158.025C1254.48 160.496 1250.42 167.026 1250.42 174.086C1250.42 179.558 1258.01 188.383 1263.83 189.795C1274.6 192.619 1285.72 184.147 1285.72 173.204C1285.72 165.438 1282.89 160.849 1276.01 158.025C1268.78 155.024 1267.01 155.024 1260.13 158.025Z" fill="#E1E1E1"/>
<path d="M1364.25 158.025C1358.78 160.319 1354.55 167.026 1354.55 173.204C1354.55 184.323 1366.02 192.619 1376.78 189.089C1391.08 184.323 1391.61 162.437 1377.31 157.495C1370.43 155.201 1370.78 155.201 1364.25 158.025Z" fill="#E1E1E1"/>
<path d="M79.4474 211.151C72.9174 217.505 73.2704 228.271 80.1533 235.155C82.9771 237.979 87.0362 240.273 88.9775 240.273C98.5077 240.273 106.802 231.801 106.802 221.917C106.802 219.623 104.685 215.21 102.214 212.21C96.2134 204.974 85.9773 204.444 79.4474 211.151Z" fill="#E1E1E1"/>
<path d="M180.749 211.857C167.689 225.094 182.161 246.098 198.398 237.626C203.692 234.978 209.163 227.036 209.163 221.917C209.163 220.505 206.692 216.446 203.692 212.916C196.456 204.797 188.338 204.444 180.749 211.857Z" fill="#E1E1E1"/>
<path d="M284.169 211.151C280.816 214.328 279.757 217.328 279.757 223.329C279.757 229.86 280.639 231.801 285.228 235.684C293.523 242.744 303.935 240.979 308.877 231.625C312.936 223.682 312.23 217.681 306.406 211.857C299.7 205.15 290.346 204.797 284.169 211.151Z" fill="#E1E1E1"/>
<path d="M385.471 211.857C374.705 222.8 381.765 239.391 397.119 239.391C405.237 239.391 408.414 236.92 411.944 228.448C414.767 221.388 413.356 216.976 406.649 211.151C399.413 205.15 392.001 205.327 385.471 211.857Z" fill="#E1E1E1"/>
<path d="M488.891 211.151C485.538 214.328 484.479 217.329 484.479 223.33C484.479 229.86 485.361 231.801 489.95 235.684C498.598 243.097 508.481 241.332 513.599 231.448C517.658 223.683 516.952 217.682 511.128 211.857C504.422 205.15 495.068 204.797 488.891 211.151Z" fill="#E1E1E1"/>
<path d="M591.958 211.857C579.251 224.742 593.017 245.215 610.136 238.685C615.254 236.743 620.372 228.624 620.372 222.447C620.372 220.506 617.725 216.093 614.372 212.74C606.606 204.974 599.194 204.621 591.958 211.857Z" fill="#E1E1E1"/>
<path d="M693.613 211.151C690.26 214.328 689.201 217.329 689.201 223.329C689.201 229.86 690.083 231.801 694.672 235.684C703.143 242.921 713.379 240.979 718.321 231.272C726.968 214.858 706.496 198.267 693.613 211.151Z" fill="#E1E1E1"/>
<path d="M796.68 211.857C790.15 218.564 789.797 227.212 795.797 233.743C804.092 242.568 815.74 242.215 821.741 232.684C826.329 225.271 824.917 218.034 818.035 211.504C810.799 204.974 803.386 205.15 796.68 211.857Z" fill="#E1E1E1"/>
<path d="M898.335 211.151C889.511 219.799 893.746 236.567 905.394 239.567C921.807 243.627 932.396 221.917 919.513 210.622C913.16 205.327 903.982 205.327 898.335 211.151Z" fill="#E1E1E1"/>
<path d="M1001.4 211.857C994.872 218.564 994.519 227.212 1000.52 233.743C1008.81 242.568 1020.46 242.215 1026.46 232.684C1031.05 225.271 1029.64 218.034 1022.76 211.504C1015.52 204.974 1008.11 205.15 1001.4 211.857Z" fill="#E1E1E1"/>
<path d="M1103.06 211.151C1096.7 217.329 1096.88 229.86 1103.23 235.861C1112.23 244.156 1124.76 240.45 1128.65 228.625C1134.12 212.387 1114.88 199.149 1103.06 211.151Z" fill="#E1E1E1"/>
<path d="M1206.12 212.21C1198.89 219.799 1199.06 228.271 1206.48 235.155C1215.65 243.627 1227.48 241.509 1232.07 230.389C1234.18 225.271 1234.18 223.506 1232.07 218.387C1226.95 205.856 1214.77 203.032 1206.12 212.21Z" fill="#E1E1E1"/>
<path d="M1313.07 208.857C1307.25 212.034 1305.13 215.917 1305.13 223.859C1305.13 233.566 1310.95 240.273 1319.25 240.273C1327.01 240.273 1331.07 237.626 1334.78 230.036C1337.6 224.035 1337.6 223.153 1334.96 217.505C1330.19 207.445 1321.72 204.091 1313.07 208.857Z" fill="#E1E1E1"/>
<path d="M1411.02 212.034C1403.96 219.623 1403.96 227.389 1410.85 234.802C1419.32 243.803 1432.02 241.862 1436.79 230.566C1438.73 225.977 1438.73 223.506 1437.14 218.741C1434.32 210.622 1431.49 208.327 1423.38 207.268C1417.2 206.386 1415.79 206.915 1411.02 212.034Z" fill="#E1E1E1"/>
<path d="M30.9141 261.983C21.5604 266.748 20.3251 279.103 28.4433 287.398C37.2676 296.223 52.0922 289.516 52.0922 276.632C52.0922 268.16 50.6804 265.16 44.8564 262.336C38.8559 259.159 36.5616 259.159 30.9141 261.983Z" fill="#E1E1E1"/>
<path d="M136.804 260.924C132.745 262.336 126.215 268.866 127.098 270.455C127.627 271.161 127.274 272.22 126.215 272.926C123.039 274.867 124.274 278.75 129.922 285.281C136.981 293.223 143.687 293.576 151.1 286.339C159.218 278.221 157.806 266.925 147.923 261.806C143.864 259.512 141.04 259.335 136.804 260.924Z" fill="#E1E1E1"/>
<path d="M238.283 261.453C220.988 268.337 230.694 295.341 248.872 290.752C257.52 288.634 262.108 275.044 256.814 267.454C251.872 260.571 245.342 258.453 238.283 261.453Z" fill="#E1E1E1"/>
<path d="M339.938 261.983C337.467 263.042 334.114 266.925 332.173 270.278C328.996 276.103 328.996 276.456 331.82 281.751C338.35 293.047 347.35 294.812 355.822 286.34C363.058 279.103 362.881 270.455 355.469 264.277C349.468 259.159 346.291 258.629 339.938 261.983Z" fill="#E1E1E1"/>
<path d="M442.123 261.983C432.593 266.925 431.181 278.927 439.475 287.222C445.652 293.399 453.418 292.87 459.948 285.986C464.007 281.574 464.713 279.633 463.83 275.044C461.889 264.101 450.77 257.394 442.123 261.983Z" fill="#E1E1E1"/>
<path d="M544.66 261.806C542.189 263.042 538.836 266.925 536.894 270.278C533.718 276.103 533.718 276.456 536.541 281.751C538.306 284.575 540.954 288.105 542.365 289.164C550.66 295.871 565.661 286.693 565.661 275.22C565.661 264.807 553.66 257.217 544.66 261.806Z" fill="#E1E1E1"/>
<path d="M646.844 261.983C641.197 264.807 637.314 272.749 638.903 278.574C640.491 285.457 647.727 291.458 653.904 291.458C662.022 291.458 669.611 283.339 668.905 275.75C668.022 264.983 655.845 257.394 646.844 261.983Z" fill="#E1E1E1"/>
<path d="M749.382 261.806C746.911 263.042 743.558 266.748 741.793 269.925C738.617 275.573 738.617 275.926 742.146 282.633C745.852 290.046 751.323 292.694 758.559 290.752C765.442 288.811 768.972 284.928 769.854 277.868C770.56 272.22 770.031 269.925 766.678 266.219C761.559 260.571 755.03 258.982 749.382 261.806Z" fill="#E1E1E1"/>
<path d="M851.919 262.336C841.86 266.748 840.271 278.574 848.919 287.222C854.92 293.223 862.861 292.87 869.391 286.34C875.921 279.809 875.921 273.632 869.744 266.925C863.567 260.394 859.155 259.159 851.919 262.336Z" fill="#E1E1E1"/>
<path d="M955.339 263.042C939.632 270.984 948.456 294.988 965.399 290.752C976.341 287.928 980.4 275.22 973.341 266.395C968.929 260.571 962.399 259.512 955.339 263.042Z" fill="#E1E1E1"/>
<path d="M1056.46 262.512C1046.58 266.748 1045.17 278.75 1053.64 287.222C1059.64 293.223 1067.58 292.87 1074.11 286.34C1080.47 279.986 1080.64 273.985 1074.82 267.101C1069.52 260.924 1063.88 259.335 1056.46 262.512Z" fill="#E1E1E1"/>
<path d="M1160.06 263.042C1146.3 269.925 1151.06 291.458 1166.41 291.458C1179.12 291.458 1186.18 276.632 1178.06 266.395C1173.65 260.571 1167.12 259.335 1160.06 263.042Z" fill="#E1E1E1"/>
<path d="M1257.3 264.807C1251.13 269.749 1251.48 281.574 1258.01 287.222C1264.89 293.047 1272.31 292.694 1278.84 286.34C1285.19 279.986 1285.37 273.985 1279.36 266.925C1275.84 262.512 1273.36 261.453 1268.07 261.453C1264.19 261.453 1259.77 262.865 1257.3 264.807Z" fill="#E1E1E1"/>
<path d="M1361.43 264.807C1358.08 267.454 1357.19 269.925 1357.19 276.456C1357.19 282.986 1358.08 285.457 1361.43 288.105C1371.31 296.223 1386.31 289.164 1386.31 276.456C1386.31 263.748 1371.31 256.688 1361.43 264.807Z" fill="#E1E1E1"/>
<path d="M81.2122 317.05C73.7998 324.287 75.9176 335.053 85.4478 339.113C96.2133 343.525 107.685 332.053 103.273 321.286C99.2136 311.755 88.448 309.637 81.2122 317.05Z" fill="#E1E1E1"/>
<path d="M181.808 317.05C170.513 328.17 183.573 345.643 198.045 338.76C205.104 335.406 208.281 327.993 205.634 321.286C201.574 311.579 189.221 309.461 181.808 317.05Z" fill="#E1E1E1"/>
<path d="M285.934 317.05C275.345 327.464 286.993 345.114 300.406 338.76C303.053 337.524 306.406 334.171 307.642 331.523C313.995 318.109 296.347 306.46 285.934 317.05Z" fill="#E1E1E1"/>
<path d="M386.53 317.05C375.235 328.17 388.295 345.643 402.767 338.76C405.414 337.524 408.591 334.347 409.826 331.876C416.356 318.109 397.296 306.107 386.53 317.05Z" fill="#E1E1E1"/>
<path d="M490.656 317.05C483.596 323.934 485.008 333.994 493.479 338.407C507.775 345.82 520.658 327.287 508.481 316.697C502.304 311.402 495.95 311.579 490.656 317.05Z" fill="#E1E1E1"/>
<path d="M593.017 317.05C587.722 322.169 587.193 330.111 591.958 335.759C596.37 341.231 608.194 341.584 613.489 336.289C618.96 330.817 618.43 321.816 612.606 316.697C606.253 311.402 598.488 311.402 593.017 317.05Z" fill="#E1E1E1"/>
<path d="M695.377 317.05C687.259 324.993 691.318 337.877 702.437 340.172C715.497 342.643 723.262 324.64 712.849 316.344C706.672 311.402 700.672 311.755 695.377 317.05Z" fill="#E1E1E1"/>
<path d="M797.738 317.05C789.267 325.346 793.679 338.23 805.68 340.172C814.681 341.584 821.564 335.936 821.564 326.758C821.564 314.05 806.739 308.049 797.738 317.05Z" fill="#E1E1E1"/>
<path d="M900.1 317.05C897.276 319.698 895.688 323.404 895.688 326.758C895.688 333.112 902.394 340.878 908.218 340.878C910.159 340.878 914.218 339.466 917.042 337.877C921.454 335.23 922.16 333.641 922.16 327.464C922.16 314.226 908.924 308.049 900.1 317.05Z" fill="#E1E1E1"/>
<path d="M1003.52 315.638C1001.4 317.403 999.284 321.816 998.754 325.346C996.637 338.054 1011.11 345.467 1021.7 337.171C1031.58 329.405 1025.23 312.638 1012.17 312.638C1009.52 312.638 1005.64 314.05 1003.52 315.638Z" fill="#E1E1E1"/>
<path d="M1104.82 317.05C1095.47 326.228 1102.88 342.29 1115.59 340.348C1123.88 338.936 1126.88 335.406 1126.88 326.934C1126.88 314.226 1113.47 308.225 1104.82 317.05Z" fill="#E1E1E1"/>
<path d="M1210.18 313.873C1207.36 314.932 1202.77 323.757 1202.77 328.17C1202.77 333.641 1210.71 340.878 1216.89 340.878C1229.6 340.878 1236.13 323.934 1226.42 316.344C1222.01 312.814 1215.3 311.755 1210.18 313.873Z" fill="#E1E1E1"/>
<path d="M1311.31 317.05C1308.48 319.698 1306.9 323.404 1306.9 326.758C1306.9 333.112 1313.6 340.878 1319.07 340.878C1325.25 340.878 1331.25 337.701 1332.66 333.465C1334.96 326.934 1333.55 320.933 1328.78 316.521C1322.96 311.402 1316.6 311.579 1311.31 317.05Z" fill="#E1E1E1"/>
<path d="M1413.85 316.521C1407.14 322.698 1406.43 330.288 1411.73 336.112C1420.38 345.467 1435.73 339.466 1435.73 326.758C1435.73 320.051 1428.85 312.638 1422.67 312.638C1420.2 312.638 1416.32 314.403 1413.85 316.521Z" fill="#E1E1E1"/>
<path d="M34.4437 365.058C21.3838 369.823 23.5016 390.297 37.091 390.297C43.2679 390.297 50.3273 382.884 50.3273 376.354C50.3273 371.412 46.4446 365.587 43.2679 365.587C42.3855 365.587 40.7971 365.234 39.3853 364.881C38.1499 364.352 35.8556 364.528 34.4437 365.058Z" fill="#E1E1E1"/>
<path d="M136.805 365.235C127.451 368.235 125.333 378.119 132.393 385.708C137.687 391.533 144.394 391.709 150.041 385.885C154.806 381.296 155.689 374.942 152.335 370.353C149.688 367 140.687 363.999 136.805 365.235Z" fill="#E1E1E1"/>
<path d="M340.644 365.588C332.173 368.765 330.584 378.648 337.114 385.708C342.409 391.533 349.115 391.709 354.763 385.885C359.528 381.296 360.41 374.942 357.057 370.353C354.057 366.47 345.233 363.999 340.644 365.588Z" fill="#E1E1E1"/>
<path d="M650.374 365.058C637.314 369.823 639.432 390.297 653.198 390.297C657.963 390.297 668.023 381.649 668.023 377.589C668.023 374.236 660.61 365.94 656.551 365.058C654.61 364.528 651.786 364.528 650.374 365.058Z" fill="#E1E1E1"/>
<path d="M749.205 366.117C745.676 367.882 744.617 369.824 744.264 376.531C743.734 383.414 744.44 385.179 747.794 387.473C753.441 391.533 759.265 391.003 764.207 385.885C770.031 380.237 769.678 375.295 763.501 368.941C757.677 363.293 755.735 362.764 749.205 366.117Z" fill="#E1E1E1"/>
<path d="M854.214 365.587C841.154 370.706 844.331 390.297 858.096 390.297C862.685 390.297 872.745 381.649 872.745 377.589C872.745 374.236 865.332 366.117 861.273 365.058C859.332 364.529 856.155 364.705 854.214 365.587Z" fill="#E1E1E1"/>
<path d="M955.869 366.117C947.75 370.176 947.574 384.12 955.516 388.356C961.516 391.709 967.517 390.65 971.399 385.708C976.341 379.354 975.988 375.118 969.987 368.941C964.163 363.293 962.222 362.764 955.869 366.117Z" fill="#E1E1E1"/>
<path d="M1058.94 365.588C1045.52 370.883 1048.88 390.474 1063.17 390.297C1068.47 390.121 1072.52 387.473 1075.53 381.825C1080.29 372.824 1068.82 361.528 1058.94 365.588Z" fill="#E1E1E1"/>
<path d="M1162.18 365.058C1157.24 366.999 1154.77 371.059 1154.59 377.06C1154.41 385.002 1159.18 390.297 1166.59 390.297C1172.94 390.297 1177.18 386.414 1178.94 379.354C1180 375.471 1179.12 373.53 1174.89 369.117C1169.59 363.822 1167.3 363.116 1162.18 365.058Z" fill="#E1E1E1"/>
<path d="M235.107 368.764C231.047 373.177 231.4 382.531 235.636 386.767C240.754 391.886 247.46 391.18 253.461 384.826C259.461 378.295 259.814 374.765 255.049 369.47C250.461 364.528 239.166 364.175 235.107 368.764Z" fill="#E1E1E1"/>
<path d="M439.828 368.764C432.945 376.354 438.593 390.297 448.476 390.297C453.594 390.297 463.301 381.119 463.301 376.354C463.301 367.352 446.005 361.881 439.828 368.764Z" fill="#E1E1E1"/>
<path d="M541.13 368.058C539.895 369.47 538.66 373 538.307 375.824C537.424 382.531 544.131 390.297 550.661 390.297C555.779 390.297 563.897 383.237 563.897 378.825C563.897 375.295 560.544 368.764 557.896 366.999C554.543 364.705 543.248 365.411 541.13 368.058Z" fill="#E1E1E1"/>
<path d="M1258.36 369.117C1250.95 377.413 1256.6 390.297 1267.54 390.297C1273.89 390.297 1276.72 388.356 1280.07 382.002C1286.25 370.529 1267.36 359.234 1258.36 369.117Z" fill="#E1E1E1"/>
<path d="M1362.49 369.118C1355.25 377.236 1360.72 390.297 1371.31 390.297C1378.2 390.297 1383.31 385.002 1383.31 377.942C1383.31 370.883 1378.2 365.588 1371.31 365.588C1367.96 365.588 1364.43 367 1362.49 369.118Z" fill="#E1E1E1"/>
<path d="M82.977 421.185C74.8587 429.127 79.6237 441.482 90.5658 441.482C100.625 441.482 105.391 427.715 97.9782 420.302C93.2131 415.537 88.095 415.89 82.977 421.185Z" fill="#E1E1E1"/>
<path d="M184.279 421.891C178.102 428.245 177.926 431.422 183.573 437.07C188.868 442.541 195.045 442.717 199.986 437.423C205.104 432.128 204.928 426.48 199.457 421.185C193.809 415.537 190.633 415.713 184.279 421.891Z" fill="#E1E1E1"/>
<path d="M287.875 421.008C279.58 429.127 283.64 441.482 294.582 441.482C301.641 441.482 306.229 436.893 306.229 429.833C306.229 423.126 303.229 419.067 297.052 417.655C293.346 416.772 291.228 417.478 287.875 421.008Z" fill="#E1E1E1"/>
<path d="M389.178 421.891C383.001 428.068 382.648 430.539 387.589 436.893C392.178 442.717 399.59 442.894 404.708 437.422C409.473 432.481 409.65 427.186 405.591 422.42C400.12 416.066 395.002 415.89 389.178 421.891Z" fill="#E1E1E1"/>
<path d="M492.421 421.185C484.303 429.127 488.538 441.482 499.304 441.482C506.363 441.482 510.952 436.893 510.952 429.833C510.952 423.656 509.54 421.538 504.422 418.714C498.951 415.89 497.186 416.243 492.421 421.185Z" fill="#E1E1E1"/>
<path d="M595.488 421.891C589.487 428.068 589.134 430.539 594.076 436.893C596.37 439.893 599.37 441.482 602.724 441.482C608.195 441.482 615.077 434.598 615.077 429.127C615.077 425.95 605.724 416.772 602.371 416.772C601.488 416.772 598.311 419.067 595.488 421.891Z" fill="#E1E1E1"/>
<path d="M697.142 421.185C689.024 429.127 693.26 441.482 704.202 441.482C715.32 441.482 719.909 427.362 711.084 420.479C705.084 415.713 702.26 415.89 697.142 421.185Z" fill="#E1E1E1"/>
<path d="M800.209 421.891C794.209 428.068 793.856 430.539 798.798 436.893C801.092 439.893 804.092 441.482 807.445 441.482C812.916 441.482 819.799 434.598 819.799 429.127C819.799 425.95 810.445 416.772 807.092 416.772C806.21 416.772 803.033 419.067 800.209 421.891Z" fill="#E1E1E1"/>
<path d="M901.864 421.185C893.746 429.127 897.982 441.482 908.924 441.482C920.042 441.482 924.631 427.362 915.807 420.479C909.806 415.713 906.982 415.89 901.864 421.185Z" fill="#E1E1E1"/>
<path d="M1008.64 419.067C1006.17 420.302 1003.17 423.303 1001.75 425.95C999.284 430.363 999.284 431.069 1002.64 435.658C1007.93 442.717 1015.87 443.247 1020.81 436.893C1025.58 430.892 1025.58 427.186 1020.64 422.597C1014.46 417.125 1013.23 416.772 1008.64 419.067Z" fill="#E1E1E1"/>
<path d="M1106.06 420.832C1102.35 425.244 1101.64 432.48 1104.64 437.069C1108.53 442.894 1118.41 443.247 1122.29 437.599C1128.29 429.127 1123.53 418.537 1113.82 418.537C1110.47 418.537 1107.12 419.596 1106.06 420.832Z" fill="#E1E1E1"/>
<path d="M1208.42 423.303C1206.48 426.127 1204.89 428.951 1204.89 430.01C1204.89 434.598 1212.12 441.482 1216.71 441.482C1227.13 441.482 1232.07 431.422 1225.71 423.303C1220.6 416.772 1213.01 416.772 1208.42 423.303Z" fill="#E1E1E1"/>
<path d="M1312.19 422.42C1307.78 427.186 1307.6 432.834 1311.84 437.952C1318.19 445.894 1331.6 440.599 1331.6 430.186C1331.6 419.596 1319.43 414.654 1312.19 422.42Z" fill="#E1E1E1"/>
<path d="M1413.85 422.42C1406.43 433.01 1415.96 446.071 1427.08 440.423C1429.73 439.187 1432.38 435.834 1432.91 433.363C1435.73 422.42 1420.02 413.419 1413.85 422.42Z" fill="#E1E1E1"/>
<path fill-rule="evenodd" clip-rule="evenodd" d="M1485 894.5V165C1485 82.1573 1417.84 15 1335 15H160.5C77.6573 15 10.5 82.1573 10.5 165V894.5C10.5 977.343 77.6573 1044.5 160.5 1044.5H618.679C620.005 1044.5 621.277 1045.03 622.214 1045.96L726.537 1150.29C738.253 1162 757.247 1162 768.963 1150.29L873.286 1045.96C874.223 1045.03 875.495 1044.5 876.821 1044.5H1335C1417.84 1044.5 1485 977.343 1485 894.5ZM1455 866V160C1455 90.9644 1399.04 35 1330 35H165.5C96.4644 35 40.5 90.9644 40.5 160V866C40.5 935.036 96.4644 991 165.5 991H618.679C620.005 991 621.277 991.527 622.214 992.464L737.143 1107.39C743.001 1113.25 752.499 1113.25 758.357 1107.39L873.286 992.464C874.223 991.527 875.495 991 876.821 991H1330C1399.04 991 1455 935.036 1455 866Z" fill="#55557B"/>
</g>
<defs>
<clipPath id="clip0_16_796">
<rect width="1500" height="1181" fill="white"/>
</clipPath>
</defs>
</svg>
