<svg width="600" height="400" viewBox="0 0 600 400" fill="none" xmlns="http://www.w3.org/2000/svg">
<g id="done">
<circle id="front5" cx="215.5" cy="326.5" r="7.5" fill="#C4C4C4"/>
<circle id="front4" cx="359.5" cy="331.5" r="7.5" fill="#C4C4C4"/>
<circle id="back3" cx="347" cy="340" r="5" fill="#C4C4C4"/>
<circle id="back2" cx="268" cy="338" r="5" fill="#C4C4C4"/>
<circle id="back1" cx="314" cy="334" r="5" fill="#C4C4C4"/>
<g id="done_2">
<g id="avatar">
<g id="Group 7">
<path id="Exclude" fill-rule="evenodd" clip-rule="evenodd" d="M272.717 288.019C272.717 287.732 272.949 287.5 273.235 287.5H326.764C327.051 287.5 327.283 287.732 327.283 288.019V324.146C327.283 324.433 327.051 324.665 326.764 324.665H273.235C272.949 324.665 272.717 324.433 272.717 324.146V288.019ZM284.374 301.398C284.374 301.112 284.606 300.879 284.893 300.879H288.816C289.103 300.879 289.335 301.112 289.335 301.398V311.51C289.335 311.797 289.103 312.029 288.816 312.029H284.893C284.606 312.029 284.374 311.797 284.374 311.51V301.398ZM311.184 300.879C310.898 300.879 310.665 301.112 310.665 301.398V311.51C310.665 311.797 310.898 312.029 311.184 312.029H315.107C315.394 312.029 315.626 311.797 315.626 311.51V301.398C315.626 301.112 315.394 300.879 315.107 300.879H311.184Z" fill="#47C8C0"/>
<path id="Vector 6" d="M309.139 325.656H290.861C290.621 325.656 290.412 325.822 290.357 326.056L286.509 342.362C286.432 342.688 286.679 343 287.014 343H312.986C313.321 343 313.568 342.688 313.491 342.362L309.643 326.056C309.588 325.822 309.379 325.656 309.139 325.656Z" fill="#47C8C0"/>
<path id="Intersect" fill-rule="evenodd" clip-rule="evenodd" d="M312.488 325.656C312.625 325.656 312.757 325.711 312.854 325.808L321.926 334.87C322.129 335.073 322.129 335.402 321.926 335.604L317.398 340.127C317.196 340.329 316.868 340.329 316.665 340.127L313.088 336.553C313.017 336.483 312.968 336.393 312.947 336.295L310.8 326.284C310.731 325.961 310.977 325.656 311.307 325.656H312.488Z" fill="#47C8C0"/>
<path id="Intersect_2" fill-rule="evenodd" clip-rule="evenodd" d="M287.483 325.656C287.346 325.656 287.214 325.711 287.116 325.808L278.045 334.87C277.842 335.073 277.842 335.402 278.045 335.604L282.572 340.127C282.775 340.329 283.103 340.329 283.305 340.127L286.883 336.553C286.954 336.483 287.002 336.393 287.023 336.295L289.171 326.284C289.24 325.961 288.994 325.656 288.664 325.656H287.483Z" fill="#47C8C0"/>
</g>
</g>
<g id="SpeechBallons">
<g id="Group 4">
<path id="Vector 5" d="M457.625 49.75H141.75H122.875V231.125H268.875L299.875 263.25L332 231.125H477.375L480.5 52.875L457.625 49.75Z" fill="white"/>
<g id="dot pa">
<path id="Vector" d="M132.009 56.3278C131.082 57.2986 130.817 58.0046 130.817 59.5931C130.817 61.9758 131.612 63.0789 134.038 63.8731C135.494 64.3585 135.803 64.3144 136.994 63.476C138.847 62.1523 139.642 60.8727 139.642 59.1518C139.642 55.4895 134.568 53.6362 132.009 56.3278Z" fill="#E1E1E1"/>
<path id="Vector_2" d="M157.158 56.3278C155.04 58.534 155.79 62.417 158.57 63.5643C160.952 64.535 161.57 64.4467 163.423 62.6818C165.762 60.4755 165.938 58.3575 163.953 56.3719C162.85 55.3129 162.276 55.0923 160.511 55.0923C158.702 55.0923 158.129 55.3129 157.158 56.3278Z" fill="#E1E1E1"/>
<path id="Vector_3" d="M183.189 56.3278C182.263 57.2985 181.998 58.0045 181.998 59.5489C181.998 61.9758 182.88 63.2995 184.91 63.8731C188.043 64.7556 190.822 62.4611 190.822 59.0635C190.822 55.4894 185.704 53.6803 183.189 56.3278Z" fill="#E1E1E1"/>
<path id="Vector_4" d="M208.338 56.3278C206 58.7547 207.103 62.8141 210.456 63.9173C211.647 64.3144 212.221 64.2703 213.28 63.7408C216.545 62.0199 217.383 58.6664 215.133 56.3719C214.03 55.3129 213.456 55.0923 211.692 55.0923C209.883 55.0923 209.309 55.3129 208.338 56.3278Z" fill="#E1E1E1"/>
<path id="Vector_5" d="M234.326 56.3719C233.178 57.5633 233.09 57.9163 233.267 59.9019C233.531 62.3729 234.061 63.123 236.355 63.8731C238.164 64.4909 239.355 64.0938 240.767 62.4612C241.826 61.2698 242.135 60.1225 241.826 58.4017C241.164 55.0482 236.708 53.901 234.326 56.3719Z" fill="#E1E1E1"/>
<path id="Vector_6" d="M259.96 56.3278C257.621 58.7547 258.724 62.8141 262.078 63.9172C263.843 64.4909 265.607 63.7849 267.152 61.8434C268.431 60.2108 268.122 57.5192 266.49 56.1072C264.725 54.5628 261.504 54.6952 259.96 56.3278Z" fill="#E1E1E1"/>
<path id="Vector_7" d="M285.727 56.2395C283.124 58.4458 284.227 62.77 287.668 63.9173C291.11 65.0645 294.198 61.2698 292.742 57.6957C291.551 54.8717 288.153 54.1657 285.727 56.2395Z" fill="#E1E1E1"/>
<path id="Vector_8" d="M311.229 56.3719C308.802 58.7988 309.861 62.8141 313.258 63.9173C315.023 64.4909 316.788 63.7849 318.288 61.8875C320.538 59.0194 318.332 55.1364 314.45 55.0923C312.905 55.0923 312.288 55.357 311.229 56.3719Z" fill="#E1E1E1"/>
<path id="Vector_9" d="M336.819 56.3719C334.393 58.7988 335.451 62.8141 338.849 63.9172C342.29 65.0645 345.688 60.9609 343.967 57.7398C342.423 54.8276 339.025 54.1657 336.819 56.3719Z" fill="#E1E1E1"/>
<path id="Vector_10" d="M362.497 56.3719C359.938 58.7546 360.997 62.77 364.439 63.9172C367.836 65.0203 371.322 61.0932 369.954 57.6957C368.807 54.9158 364.792 54.2098 362.497 56.3719Z" fill="#E1E1E1"/>
<path id="Vector_11" d="M387.999 56.3719C385.573 58.8429 386.632 62.8141 390.029 63.9172C391.353 64.3585 391.794 64.3144 393.029 63.6084C393.779 63.123 394.794 62.0199 395.235 61.1374C395.985 59.5489 395.985 59.4165 395.147 57.828C393.647 54.8717 390.205 54.1657 387.999 56.3719Z" fill="#E1E1E1"/>
<path id="Vector_12" d="M414.737 55.6218C413.06 56.5484 412.31 57.828 412.31 59.6371C412.31 62.6818 415.752 65.1086 418.222 63.829C421.09 62.3729 422.105 60.0784 420.914 57.6074C419.855 55.3129 416.899 54.3863 414.737 55.6218Z" fill="#E1E1E1"/>
<path id="Vector_13" d="M439.621 56.3278C437.15 58.534 437.989 62.3729 441.298 63.7407C443.063 64.4909 443.989 64.2702 445.754 62.8141C446.725 62.0199 447.033 61.358 447.078 59.8578C447.254 55.7542 442.71 53.592 439.621 56.3278Z" fill="#E1E1E1"/>
<path id="Vector_14" d="M465.917 55.6218C464.594 56.416 463.888 57.1662 463.711 58.181C463.623 58.6664 463.447 59.24 463.27 59.4606C463.138 59.6813 463.226 59.9901 463.447 60.1666C463.711 60.299 463.8 60.6961 463.667 61.005C463.358 61.7551 466.138 64.0496 467.594 64.2261C468.918 64.4026 471.477 62.7259 472.227 61.1374C473.948 57.6074 469.403 53.6362 465.917 55.6218Z" fill="#E1E1E1"/>
<path id="Vector_15" d="M119.743 68.5503C116.037 70.5801 117.67 76.2722 121.993 76.2722C125.7 76.2722 127.553 71.3743 124.817 68.8592C123.538 67.7561 121.464 67.6237 119.743 68.5503Z" fill="#E1E1E1"/>
<path id="Vector_16" d="M145.334 68.5503C143.878 69.3446 143.083 71.1537 143.436 72.9628C143.789 74.9925 144.981 75.9192 147.451 76.1398C149.26 76.3163 149.746 76.1839 150.805 75.2132C152.658 73.4923 152.569 70.889 150.628 69.0798C149.172 67.7561 147.187 67.5355 145.334 68.5503Z" fill="#E1E1E1"/>
<path id="Vector_17" d="M171.365 68.5062C169.026 69.83 168.674 73.1835 170.615 75.2573C172.027 76.8017 175.071 76.6693 176.659 75.0367C177.718 74.0218 177.895 73.4923 177.807 71.9038C177.718 70.7125 177.365 69.6976 176.836 69.124C175.689 67.9767 172.865 67.6679 171.365 68.5062Z" fill="#E1E1E1"/>
<path id="Vector_18" d="M196.735 68.3739C196.249 68.6386 195.499 69.4329 195.058 70.1388C194.132 71.7273 194.396 73.3599 195.852 75.0808C197.264 76.7134 200.485 76.8017 202.073 75.1691C203.618 73.6688 203.618 70.6683 202.117 69.2564C200.926 68.1091 198.147 67.6679 196.735 68.3739Z" fill="#E1E1E1"/>
<path id="Vector_19" d="M222.633 68.4621C220.207 69.8741 219.721 72.8745 221.619 74.9484C222.942 76.4928 224.707 76.7575 226.913 75.875C229.296 74.9043 229.913 71.6832 228.193 69.5211C227.046 68.0208 224.31 67.5355 222.633 68.4621Z" fill="#E1E1E1"/>
<path id="Vector_20" d="M247.959 68.418C246.503 69.2563 246.018 70.2271 245.974 72.1244C245.974 75.3455 249.018 77.287 252.018 76.0515C255.901 74.4189 254.886 68.5503 250.606 68.065C249.636 67.9767 248.444 68.1091 247.959 68.418Z" fill="#E1E1E1"/>
<path id="Vector_21" d="M273.726 68.5503C270.328 70.4036 271.564 76.2721 275.358 76.3604C278.402 76.4486 280.344 74.8602 280.344 72.3009C280.388 68.9475 276.77 66.8736 273.726 68.5503Z" fill="#E1E1E1"/>
<path id="Vector_22" d="M299.096 68.418C296.978 69.4328 296.537 72.8304 298.257 74.8602C300.86 77.9489 305.537 76.2722 305.537 72.3009C305.537 70.4477 304.875 69.3446 303.331 68.5503C301.875 67.8002 300.463 67.7561 299.096 68.418Z" fill="#E1E1E1"/>
<path id="Vector_23" d="M324.995 68.5062C322.656 69.83 322.083 72.7863 323.848 74.8602C326.495 77.993 331.569 76.3163 331.569 72.3009C331.569 70.4477 330.907 69.3446 329.363 68.5503C327.818 67.7561 326.407 67.712 324.995 68.5062Z" fill="#E1E1E1"/>
<path id="Vector_24" d="M350.673 68.4179C348.776 69.3446 348.246 72.8304 349.702 74.6837C351.026 76.3604 352.526 76.8458 354.335 76.2722C356.762 75.4779 357.953 72.3892 356.718 70.0506C355.747 68.2414 352.703 67.4472 350.673 68.4179Z" fill="#E1E1E1"/>
<path id="Vector_25" d="M376.351 68.5062C374.94 69.124 373.925 70.7566 373.925 72.5216C373.925 73.8894 375.822 76.0957 377.278 76.4487C379.969 77.1547 382.749 75.0367 382.749 72.3009C382.749 70.4477 382.087 69.3446 380.543 68.5503C378.999 67.7561 378.116 67.7561 376.351 68.5062Z" fill="#E1E1E1"/>
<path id="Vector_26" d="M402.295 68.3738C400 69.0357 399.206 72.5657 400.883 74.6837C402.207 76.3604 403.707 76.8458 405.516 76.2722C407.236 75.6985 408.339 74.1542 408.339 72.3009C408.339 70.4477 407.678 69.3446 406.133 68.5503C404.721 67.8002 404.324 67.8002 402.295 68.3738Z" fill="#E1E1E1"/>
<path id="Vector_27" d="M427.532 68.5062C426.12 69.124 425.105 70.7566 425.105 72.5216C425.105 73.8894 427.003 76.0957 428.459 76.4487C431.15 77.1547 433.93 75.0367 433.93 72.3009C433.93 70.3594 433.224 69.2122 431.503 68.5062C429.694 67.7561 429.253 67.7561 427.532 68.5062Z" fill="#E1E1E1"/>
<path id="Vector_28" d="M453.563 68.5062C452.196 69.0798 451.137 70.7566 451.137 72.3009C451.137 75.0808 454.005 77.1547 456.696 76.2722C460.27 75.0808 460.402 69.6093 456.828 68.3738C455.108 67.8002 455.196 67.8002 453.563 68.5062Z" fill="#E1E1E1"/>
<path id="Vector_29" d="M132.362 81.7877C130.729 83.3762 130.817 86.0678 132.538 87.7887C133.244 88.4947 134.259 89.0683 134.744 89.0683C137.127 89.0683 139.2 86.9503 139.2 84.4793C139.2 83.9057 138.671 82.8026 138.053 82.0525C136.553 80.2434 133.994 80.111 132.362 81.7877Z" fill="#E1E1E1"/>
<path id="Vector_30" d="M157.687 81.9643C154.422 85.2736 158.04 90.5245 162.099 88.4065C163.423 87.7446 164.791 85.759 164.791 84.4794C164.791 84.1264 164.173 83.1115 163.423 82.229C161.614 80.1993 159.584 80.111 157.687 81.9643Z" fill="#E1E1E1"/>
<path id="Vector_31" d="M183.542 81.7877C182.704 82.582 182.439 83.3321 182.439 84.8324C182.439 86.465 182.66 86.9503 183.807 87.9211C185.881 89.6861 188.484 89.2448 189.719 86.9062C190.734 84.9206 190.558 83.4204 189.102 81.9642C187.425 80.2875 185.087 80.1992 183.542 81.7877Z" fill="#E1E1E1"/>
<path id="Vector_32" d="M208.868 81.9642C206.176 84.7 207.941 88.8477 211.779 88.8477C213.809 88.8477 214.603 88.2299 215.486 86.112C216.192 84.347 215.839 83.2439 214.162 81.7878C212.353 80.2875 210.5 80.3316 208.868 81.9642Z" fill="#E1E1E1"/>
<path id="Vector_33" d="M234.723 81.7878C233.884 82.582 233.62 83.3321 233.62 84.8324C233.62 86.465 233.84 86.9504 234.987 87.9211C237.149 89.7744 239.62 89.3331 240.9 86.8621C241.914 84.9206 241.738 83.4204 240.282 81.9643C238.605 80.2875 236.267 80.1993 234.723 81.7878Z" fill="#E1E1E1"/>
<path id="Vector_34" d="M260.49 81.9643C257.313 85.1854 260.754 90.3038 265.034 88.6712C266.314 88.1859 267.593 86.1561 267.593 84.6118C267.593 84.1264 266.931 83.0233 266.093 82.1849C264.152 80.2434 262.299 80.1552 260.49 81.9643Z" fill="#E1E1E1"/>
<path id="Vector_35" d="M285.903 81.7877C285.065 82.582 284.8 83.3321 284.8 84.8323C284.8 86.4649 285.021 86.9503 286.168 87.9211C288.286 89.7302 290.845 89.2448 292.08 86.8179C294.242 82.7144 289.124 78.5666 285.903 81.7877Z" fill="#E1E1E1"/>
<path id="Vector_36" d="M311.67 81.9642C310.037 83.641 309.949 85.8031 311.449 87.4357C313.523 89.642 316.435 89.5537 317.935 87.171C319.082 85.3177 318.729 83.5086 317.008 81.876C315.199 80.2434 313.346 80.2875 311.67 81.9642Z" fill="#E1E1E1"/>
<path id="Vector_37" d="M337.084 81.7877C334.878 83.9499 335.937 88.1417 338.849 88.8918C342.952 89.9067 345.599 84.4794 342.378 81.6554C340.79 80.3316 338.496 80.3316 337.084 81.7877Z" fill="#E1E1E1"/>
<path id="Vector_38" d="M362.85 81.9642C361.218 83.641 361.13 85.8031 362.63 87.4357C364.703 89.642 367.615 89.5537 369.116 87.171C370.263 85.3177 369.91 83.5086 368.189 81.876C366.38 80.2434 364.527 80.2875 362.85 81.9642Z" fill="#E1E1E1"/>
<path id="Vector_39" d="M388.264 81.7878C386.676 83.3321 386.72 86.465 388.308 87.9652C390.558 90.0391 393.691 89.1125 394.662 86.1561C396.029 82.0966 391.22 78.7873 388.264 81.7878Z" fill="#E1E1E1"/>
<path id="Vector_40" d="M414.031 82.0525C412.222 83.9498 412.266 86.0678 414.119 87.7887C416.413 89.9067 419.369 89.3772 420.517 86.5973C421.046 85.3177 421.046 84.8765 420.517 83.5968C419.237 80.464 416.193 79.758 414.031 82.0525Z" fill="#E1E1E1"/>
<path id="Vector_41" d="M440.768 81.2141C439.312 82.0084 438.783 82.9791 438.783 84.9647C438.783 87.3916 440.239 89.0683 442.312 89.0683C444.254 89.0683 445.269 88.4064 446.195 86.5091C446.901 85.0088 446.901 84.7882 446.239 83.3762C445.048 80.8611 442.93 80.0228 440.768 81.2141Z" fill="#E1E1E1"/>
<path id="Vector_42" d="M465.255 82.0084C463.491 83.9057 463.491 85.8472 465.211 87.7005C467.329 89.9508 470.506 89.4655 471.697 86.6415C472.182 85.4942 472.182 84.8765 471.785 83.6851C471.079 81.6554 470.374 81.0818 468.344 80.817C466.8 80.5964 466.447 80.7288 465.255 82.0084Z" fill="#E1E1E1"/>
<path id="Vector_43" d="M120.228 94.4957C117.89 95.687 117.581 98.7758 119.611 100.85C121.817 103.056 125.523 101.379 125.523 98.158C125.523 96.04 125.17 95.2899 123.714 94.5839C122.214 93.7897 121.64 93.7897 120.228 94.4957Z" fill="#E1E1E1"/>
<path id="Vector_44" d="M146.701 94.2309C145.686 94.5839 144.054 96.2165 144.274 96.6137C144.407 96.7901 144.319 97.0549 144.054 97.2314C143.26 97.7168 143.569 98.6875 144.98 100.32C146.745 102.306 148.422 102.394 150.275 100.585C152.305 98.5551 151.952 95.7312 149.481 94.4515C148.466 93.8779 147.76 93.8338 146.701 94.2309Z" fill="#E1E1E1"/>
<path id="Vector_45" d="M172.071 94.3633C167.747 96.0842 170.173 102.835 174.718 101.688C176.88 101.158 178.027 97.7609 176.703 95.8635C175.468 94.1427 173.835 93.6132 172.071 94.3633Z" fill="#E1E1E1"/>
<path id="Vector_46" d="M197.485 94.4957C196.867 94.7604 196.029 95.7312 195.543 96.5695C194.749 98.0257 194.749 98.1139 195.455 99.4377C197.087 102.262 199.338 102.703 201.455 100.585C203.264 98.7758 203.22 96.6137 201.367 95.0693C199.867 93.7897 199.073 93.6573 197.485 94.4957Z" fill="#E1E1E1"/>
<path id="Vector_47" d="M223.03 94.4957C220.648 95.7312 220.295 98.7316 222.369 100.805C223.913 102.35 225.854 102.217 227.487 100.497C228.501 99.3935 228.678 98.9081 228.457 97.7609C227.972 95.0252 225.192 93.3484 223.03 94.4957Z" fill="#E1E1E1"/>
<path id="Vector_48" d="M248.665 94.4515C248.047 94.7604 247.209 95.7311 246.723 96.5695C245.929 98.0256 245.929 98.1139 246.635 99.4376C247.076 100.144 247.738 101.026 248.091 101.291C250.165 102.968 253.915 100.673 253.915 97.805C253.915 95.2016 250.915 93.3043 248.665 94.4515Z" fill="#E1E1E1"/>
<path id="Vector_49" d="M274.211 94.4957C272.799 95.2017 271.829 97.1873 272.226 98.6434C272.623 100.364 274.432 101.865 275.976 101.865C278.006 101.865 279.903 99.8348 279.726 97.9374C279.506 95.2458 276.461 93.3484 274.211 94.4957Z" fill="#E1E1E1"/>
<path id="Vector_50" d="M299.846 94.4515C299.228 94.7604 298.39 95.687 297.948 96.4813C297.154 97.8933 297.154 97.9815 298.037 99.6583C298.963 101.512 300.331 102.173 302.14 101.688C303.861 101.203 304.743 100.232 304.964 98.4669C305.14 97.0549 305.008 96.4813 304.169 95.5547C302.89 94.1427 301.257 93.7455 299.846 94.4515Z" fill="#E1E1E1"/>
<path id="Vector_51" d="M325.48 94.5839C322.965 95.687 322.568 98.6434 324.73 100.805C326.23 102.306 328.215 102.217 329.848 100.585C331.48 98.9522 331.48 97.4079 329.936 95.7311C328.392 94.0985 327.289 93.7897 325.48 94.5839Z" fill="#E1E1E1"/>
<path id="Vector_52" d="M351.335 94.7604C347.408 96.746 349.614 102.747 353.85 101.688C356.585 100.982 357.6 97.805 355.835 95.5988C354.732 94.1427 353.1 93.8779 351.335 94.7604Z" fill="#E1E1E1"/>
<path id="Vector_53" d="M376.616 94.628C374.145 95.687 373.792 98.6875 375.91 100.805C377.41 102.306 379.396 102.217 381.028 100.585C382.617 98.9964 382.661 97.4961 381.205 95.7753C379.881 94.2309 378.469 93.8338 376.616 94.628Z" fill="#E1E1E1"/>
<path id="Vector_54" d="M402.515 94.7604C399.074 96.4813 400.265 101.864 404.103 101.864C407.28 101.864 409.045 98.158 407.015 95.5988C405.912 94.1427 404.28 93.8338 402.515 94.7604Z" fill="#E1E1E1"/>
<path id="Vector_55" d="M426.826 95.2016C425.282 96.4371 425.37 99.3935 427.002 100.805C428.723 102.262 430.576 102.173 432.209 100.585C433.797 98.9964 433.841 97.4961 432.341 95.7311C431.459 94.628 430.841 94.3633 429.517 94.3633C428.547 94.3633 427.443 94.7163 426.826 95.2016Z" fill="#E1E1E1"/>
<path id="Vector_56" d="M452.858 95.2016C452.019 95.8635 451.799 96.4812 451.799 98.1139C451.799 99.7465 452.019 100.364 452.858 101.026C455.329 103.056 459.079 101.291 459.079 98.1139C459.079 94.9369 455.329 93.1719 452.858 95.2016Z" fill="#E1E1E1"/>
<path id="Vector_57" d="M132.803 108.263C130.95 110.072 131.479 112.763 133.862 113.778C136.553 114.881 139.421 112.013 138.318 109.322C137.303 106.939 134.612 106.409 132.803 108.263Z" fill="#E1E1E1"/>
<path id="Vector_58" d="M157.952 108.263C155.128 111.042 158.393 115.411 162.011 113.69C163.776 112.852 164.57 110.998 163.909 109.322C162.894 106.895 159.805 106.365 157.952 108.263Z" fill="#E1E1E1"/>
<path id="Vector_59" d="M183.983 108.263C181.336 110.866 184.248 115.278 187.601 113.69C188.263 113.381 189.101 112.543 189.41 111.881C190.999 108.527 186.587 105.615 183.983 108.263Z" fill="#E1E1E1"/>
<path id="Vector_60" d="M209.132 108.263C206.309 111.042 209.574 115.411 213.192 113.69C213.853 113.381 214.648 112.587 214.956 111.969C216.589 108.527 211.824 105.527 209.132 108.263Z" fill="#E1E1E1"/>
<path id="Vector_61" d="M235.164 108.263C233.399 109.983 233.752 112.499 235.87 113.602C239.444 115.455 242.665 110.822 239.62 108.174C238.076 106.851 236.488 106.895 235.164 108.263Z" fill="#E1E1E1"/>
<path id="Vector_62" d="M260.754 108.263C259.431 109.542 259.298 111.528 260.489 112.94C261.592 114.308 264.549 114.396 265.872 113.072C267.24 111.704 267.108 109.454 265.652 108.174C264.063 106.851 262.122 106.851 260.754 108.263Z" fill="#E1E1E1"/>
<path id="Vector_63" d="M286.344 108.263C284.315 110.248 285.33 113.469 288.109 114.043C291.374 114.661 293.315 110.16 290.712 108.086C289.168 106.851 287.668 106.939 286.344 108.263Z" fill="#E1E1E1"/>
<path id="Vector_64" d="M311.935 108.263C309.817 110.336 310.92 113.558 313.92 114.043C316.171 114.396 317.891 112.984 317.891 110.689C317.891 107.512 314.185 106.012 311.935 108.263Z" fill="#E1E1E1"/>
<path id="Vector_65" d="M337.525 108.263C336.819 108.924 336.422 109.851 336.422 110.689C336.422 112.278 338.098 114.219 339.554 114.219C340.04 114.219 341.055 113.866 341.761 113.469C342.864 112.807 343.04 112.41 343.04 110.866C343.04 107.557 339.731 106.012 337.525 108.263Z" fill="#E1E1E1"/>
<path id="Vector_66" d="M363.38 107.91C362.851 108.351 362.321 109.454 362.189 110.336C361.659 113.513 365.277 115.367 367.925 113.293C370.395 111.351 368.807 107.159 365.542 107.159C364.88 107.159 363.91 107.512 363.38 107.91Z" fill="#E1E1E1"/>
<path id="Vector_67" d="M388.705 108.263C386.367 110.557 388.22 114.572 391.397 114.087C393.47 113.734 394.22 112.852 394.22 110.734C394.22 107.557 390.867 106.056 388.705 108.263Z" fill="#E1E1E1"/>
<path id="Vector_68" d="M415.045 107.468C414.34 107.733 413.192 109.939 413.192 111.042C413.192 112.41 415.178 114.219 416.722 114.219C419.899 114.219 421.531 109.983 419.105 108.086C418.002 107.204 416.325 106.939 415.045 107.468Z" fill="#E1E1E1"/>
<path id="Vector_69" d="M440.327 108.263C439.621 108.924 439.224 109.851 439.224 110.689C439.224 112.278 440.901 114.219 442.268 114.219C443.813 114.219 445.313 113.425 445.666 112.366C446.239 110.734 445.886 109.233 444.695 108.13C443.239 106.851 441.651 106.895 440.327 108.263Z" fill="#E1E1E1"/>
<path id="Vector_70" d="M465.962 108.13C464.285 109.675 464.108 111.572 465.432 113.028C467.594 115.367 471.433 113.866 471.433 110.689C471.433 109.013 469.712 107.159 468.168 107.159C467.55 107.159 466.579 107.601 465.962 108.13Z" fill="#E1E1E1"/>
<path id="Vector_71" d="M121.111 120.264C117.846 121.456 118.376 126.574 121.773 126.574C123.317 126.574 125.082 124.721 125.082 123.088C125.082 121.853 124.111 120.397 123.317 120.397C123.097 120.397 122.7 120.309 122.347 120.22C122.038 120.088 121.464 120.132 121.111 120.264Z" fill="#E1E1E1"/>
<path id="Vector_72" d="M146.701 120.309C144.363 121.059 143.834 123.53 145.598 125.427C146.922 126.883 148.599 126.927 150.011 125.471C151.202 124.324 151.422 122.736 150.584 121.588C149.922 120.75 147.672 120 146.701 120.309Z" fill="#E1E1E1"/>
<path id="Vector_73" d="M197.661 120.397C195.543 121.191 195.146 123.662 196.778 125.427C198.102 126.883 199.779 126.927 201.19 125.471C202.382 124.324 202.602 122.736 201.764 121.588C201.014 120.618 198.808 120 197.661 120.397Z" fill="#E1E1E1"/>
<path id="Vector_74" d="M275.093 120.264C271.828 121.456 272.358 126.574 275.799 126.574C276.991 126.574 279.505 124.412 279.505 123.397C279.505 122.559 277.652 120.485 276.638 120.264C276.152 120.132 275.446 120.132 275.093 120.264Z" fill="#E1E1E1"/>
<path id="Vector_75" d="M299.801 120.529C298.919 120.971 298.654 121.456 298.566 123.133C298.434 124.853 298.61 125.295 299.448 125.868C300.86 126.883 302.316 126.751 303.552 125.471C305.008 124.059 304.919 122.824 303.375 121.235C301.919 119.823 301.434 119.691 299.801 120.529Z" fill="#E1E1E1"/>
<path id="Vector_76" d="M326.053 120.397C322.788 121.676 323.582 126.574 327.024 126.574C328.171 126.574 330.686 124.412 330.686 123.397C330.686 122.559 328.833 120.529 327.818 120.265C327.333 120.132 326.539 120.176 326.053 120.397Z" fill="#E1E1E1"/>
<path id="Vector_77" d="M351.467 120.529C349.438 121.544 349.393 125.03 351.379 126.089C352.879 126.927 354.379 126.663 355.35 125.427C356.585 123.839 356.497 122.78 354.997 121.235C353.541 119.823 353.056 119.691 351.467 120.529Z" fill="#E1E1E1"/>
<path id="Vector_78" d="M377.234 120.397C373.88 121.721 374.719 126.618 378.293 126.574C379.616 126.53 380.631 125.868 381.381 124.456C382.572 122.206 379.704 119.382 377.234 120.397Z" fill="#E1E1E1"/>
<path id="Vector_79" d="M403.045 120.264C401.809 120.75 401.192 121.765 401.148 123.265C401.104 125.251 402.295 126.574 404.148 126.574C405.736 126.574 406.795 125.604 407.236 123.839C407.501 122.868 407.281 122.382 406.222 121.279C404.898 119.956 404.324 119.779 403.045 120.264Z" fill="#E1E1E1"/>
<path id="Vector_80" d="M171.277 121.191C170.262 122.294 170.35 124.633 171.409 125.692C172.689 126.971 174.365 126.795 175.865 125.206C177.365 123.574 177.454 122.691 176.262 121.368C175.115 120.132 172.291 120.044 171.277 121.191Z" fill="#E1E1E1"/>
<path id="Vector_81" d="M222.457 121.191C220.737 123.088 222.148 126.574 224.619 126.574C225.899 126.574 228.325 124.28 228.325 123.088C228.325 120.838 224.002 119.47 222.457 121.191Z" fill="#E1E1E1"/>
<path id="Vector_82" d="M247.783 121.015C247.474 121.368 247.165 122.25 247.077 122.956C246.856 124.633 248.533 126.574 250.165 126.574C251.445 126.574 253.474 124.809 253.474 123.706C253.474 122.824 252.636 121.191 251.974 120.75C251.136 120.176 248.312 120.353 247.783 121.015Z" fill="#E1E1E1"/>
<path id="Vector_83" d="M427.091 121.279C425.238 123.353 426.65 126.574 429.385 126.574C430.974 126.574 431.68 126.089 432.518 124.5C434.062 121.632 429.341 118.808 427.091 121.279Z" fill="#E1E1E1"/>
<path id="Vector_84" d="M453.122 121.279C451.313 123.309 452.681 126.574 455.328 126.574C457.049 126.574 458.328 125.251 458.328 123.486C458.328 121.721 457.049 120.397 455.328 120.397C454.49 120.397 453.607 120.75 453.122 121.279Z" fill="#E1E1E1"/>
<path id="Vector_85" d="M133.244 134.296C131.214 136.282 132.406 139.37 135.141 139.37C137.656 139.37 138.847 135.929 136.994 134.076C135.803 132.884 134.524 132.972 133.244 134.296Z" fill="#E1E1E1"/>
<path id="Vector_86" d="M158.57 134.473C157.026 136.061 156.982 136.855 158.393 138.267C159.717 139.635 161.261 139.679 162.497 138.356C163.776 137.032 163.732 135.62 162.364 134.296C160.952 132.884 160.158 132.928 158.57 134.473Z" fill="#E1E1E1"/>
<path id="Vector_87" d="M184.469 134.252C182.395 136.282 183.41 139.37 186.146 139.37C187.91 139.37 189.058 138.223 189.058 136.458C189.058 134.782 188.308 133.767 186.763 133.414C185.837 133.193 185.307 133.37 184.469 134.252Z" fill="#E1E1E1"/>
<path id="Vector_88" d="M209.794 134.473C208.25 136.017 208.162 136.635 209.397 138.223C210.544 139.679 212.397 139.723 213.677 138.356C214.868 137.12 214.912 135.796 213.898 134.605C212.53 133.017 211.25 132.972 209.794 134.473Z" fill="#E1E1E1"/>
<path id="Vector_89" d="M235.605 134.296C233.575 136.282 234.634 139.37 237.326 139.37C239.091 139.37 240.238 138.223 240.238 136.458C240.238 134.914 239.885 134.384 238.605 133.678C237.237 132.972 236.796 133.061 235.605 134.296Z" fill="#E1E1E1"/>
<path id="Vector_90" d="M261.372 134.473C259.872 136.017 259.784 136.635 261.019 138.223C261.593 138.973 262.343 139.37 263.181 139.37C264.549 139.37 266.269 137.65 266.269 136.282C266.269 135.488 263.931 133.193 263.093 133.193C262.872 133.193 262.078 133.767 261.372 134.473Z" fill="#E1E1E1"/>
<path id="Vector_91" d="M286.786 134.296C284.756 136.282 285.815 139.37 288.55 139.37C291.33 139.37 292.477 135.841 290.271 134.12C288.771 132.928 288.065 132.972 286.786 134.296Z" fill="#E1E1E1"/>
<path id="Vector_92" d="M312.552 134.473C311.052 136.017 310.964 136.635 312.199 138.223C312.773 138.973 313.523 139.37 314.361 139.37C315.729 139.37 317.45 137.65 317.45 136.282C317.45 135.488 315.111 133.193 314.273 133.193C314.052 133.193 313.258 133.767 312.552 134.473Z" fill="#E1E1E1"/>
<path id="Vector_93" d="M337.966 134.296C335.937 136.282 336.996 139.37 339.731 139.37C342.511 139.37 343.658 135.84 341.452 134.12C339.952 132.928 339.246 132.972 337.966 134.296Z" fill="#E1E1E1"/>
<path id="Vector_94" d="M364.66 133.767C364.042 134.076 363.292 134.826 362.939 135.488C362.321 136.591 362.321 136.767 363.159 137.914C364.483 139.679 366.469 139.812 367.704 138.223C368.895 136.723 368.895 135.796 367.66 134.649C366.116 133.281 365.807 133.193 364.66 133.767Z" fill="#E1E1E1"/>
<path id="Vector_95" d="M389.014 134.208C388.088 135.311 387.911 137.12 388.661 138.267C389.632 139.723 392.103 139.812 393.073 138.4C394.573 136.282 393.382 133.634 390.955 133.634C390.117 133.634 389.279 133.899 389.014 134.208Z" fill="#E1E1E1"/>
<path id="Vector_96" d="M414.605 134.826C414.119 135.532 413.722 136.238 413.722 136.502C413.722 137.65 415.531 139.37 416.678 139.37C419.281 139.37 420.517 136.855 418.928 134.826C417.649 133.193 415.752 133.193 414.605 134.826Z" fill="#E1E1E1"/>
<path id="Vector_97" d="M440.547 134.605C439.444 135.796 439.4 137.208 440.459 138.488C442.048 140.474 445.401 139.15 445.401 136.546C445.401 133.899 442.356 132.663 440.547 134.605Z" fill="#E1E1E1"/>
<path id="Vector_98" d="M465.961 134.605C464.108 137.252 466.491 140.518 469.27 139.106C469.932 138.797 470.594 137.958 470.726 137.341C471.432 134.605 467.506 132.355 465.961 134.605Z" fill="#E1E1E1"/>
</g>
<path id="Subtract" fill-rule="evenodd" clip-rule="evenodd" d="M489.875 197V68.3102C489.875 51.0766 475.903 37.0975 458.669 37.0374C430.204 36.9381 403.053 36.7944 376.555 36.6542C297.9 36.2381 224.985 35.8522 140.461 36.7471C123.373 36.928 109.625 50.8537 109.625 67.9429V197C109.625 214.259 123.616 228.25 140.875 228.25H267.17C267.501 228.25 267.819 228.382 268.054 228.616L296.786 257.348C298.25 258.813 300.625 258.813 302.089 257.348L330.821 228.616C331.056 228.382 331.374 228.25 331.705 228.25H458.625C475.884 228.25 489.875 214.259 489.875 197ZM468.75 196.875V69C468.75 62.0964 463.154 56.5 456.25 56.5H142.625C135.721 56.5 130.125 62.0964 130.125 69V196.875C130.125 203.779 135.721 209.375 142.625 209.375H265.582C272.213 209.375 278.571 212.009 283.26 216.697L296.786 230.223C298.25 231.688 300.625 231.688 302.089 230.223L315.615 216.697C320.304 212.009 326.662 209.375 333.293 209.375H456.25C463.154 209.375 468.75 203.779 468.75 196.875Z" fill="#E1E1E1"/>
<path id="Subtract_2" fill-rule="evenodd" clip-rule="evenodd" d="M102.625 70.25V202.625C102.625 223.336 119.414 240.125 140.125 240.125H267.17C267.501 240.125 267.819 240.257 268.054 240.491L294.134 266.572C297.063 269.501 301.812 269.501 304.741 266.572L330.821 240.491C331.056 240.257 331.374 240.125 331.705 240.125H458.75C479.461 240.125 496.25 223.336 496.25 202.625V161.438V70.25C496.25 49.5393 479.461 32.75 458.75 32.75H140.125C119.414 32.75 102.625 49.5393 102.625 70.25ZM488.75 195.5V69C488.75 51.7411 474.759 37.75 457.5 37.75H141.375C124.116 37.75 110.125 51.7411 110.125 69V195.5C110.125 212.759 124.116 226.75 141.375 226.75H267.17C267.501 226.75 267.819 226.882 268.054 227.116L296.786 255.848C298.25 257.313 300.625 257.313 302.089 255.848L330.821 227.116C331.056 226.882 331.374 226.75 331.705 226.75H457.5C474.759 226.75 488.75 212.759 488.75 195.5Z" fill="#55557B"/>
</g>
</g>
</g>
<circle id="front7" cx="228" cy="348" r="5" fill="#C4C4C4"/>
<circle id="front6" cx="162.5" cy="350.5" r="7.5" fill="#C4C4C4"/>
<circle id="front5_2" cx="240.5" cy="375.5" r="7.5" fill="#C4C4C4"/>
<circle id="front4_2" cx="409.5" cy="362.5" r="7.5" fill="#C4C4C4"/>
<circle id="front3" cx="260" cy="358" r="5" fill="#C4C4C4"/>
<circle id="front2" cx="316" cy="363" r="5" fill="#C4C4C4"/>
<circle id="front1" cx="370" cy="353" r="5" fill="#C4C4C4"/>
</g>
</svg>
