<svg width="900" height="400" viewBox="0 0 900 400" fill="none" xmlns="http://www.w3.org/2000/svg">
<g id="donate">
<g id="hideCircle">
<circle id="back18" cx="615" cy="335" r="5" fill="#C4C4C4"/>
<circle id="back17" cx="596.5" cy="315.5" r="2.5" fill="#C4C4C4"/>
<circle id="back16" cx="569" cy="326" r="5" fill="#C4C4C4"/>
<circle id="back15" cx="555.5" cy="310.5" r="7.5" fill="#C4C4C4"/>
<circle id="front14" cx="520.5" cy="331.5" r="7.5" fill="#C4C4C4"/>
<circle id="back13" cx="515.75" cy="315.75" r="3.75" fill="#C4C4C4"/>
<circle id="back12" cx="508" cy="340" r="5" fill="#C4C4C4"/>
<circle id="back11" cx="499.25" cy="301.25" r="6.25" fill="#C4C4C4"/>
<circle id="back10" cx="488" cy="322" r="5" fill="#C4C4C4"/>
<circle id="back9" cx="465.5" cy="334.5" r="2.5" fill="#C4C4C4"/>
<circle id="back1" cx="439" cy="330" r="5" fill="#C4C4C4"/>
<circle id="back2" cx="423.5" cy="322.5" r="2.5" fill="#C4C4C4"/>
<circle id="back3" cx="413.25" cy="329.25" r="6.25" fill="#C4C4C4"/>
<circle id="back4" cx="390" cy="318" r="5" fill="#C4C4C4"/>
<circle id="back5" cx="375" cy="303" r="5" fill="#C4C4C4"/>
<circle id="back6" cx="366.5" cy="326.5" r="7.5" fill="#C4C4C4"/>
<circle id="back7" cx="337.5" cy="312.5" r="7.5" fill="#C4C4C4"/>
<circle id="back8" cx="292.75" cy="316.75" r="3.75" fill="#C4C4C4"/>
</g>
<g id="donate_2">
<g id="avatar">
<g id="avatarBody">
<path id="Exclude" fill-rule="evenodd" clip-rule="evenodd" d="M423 288.019C423 287.732 423.232 287.5 423.519 287.5H477.048C477.334 287.5 477.566 287.732 477.566 288.019V324.146C477.566 324.433 477.334 324.665 477.048 324.665H423.519C423.232 324.665 423 324.433 423 324.146V288.019ZM434.657 301.398C434.657 301.112 434.89 300.879 435.176 300.879H439.099C439.386 300.879 439.618 301.112 439.618 301.398V311.51C439.618 311.797 439.386 312.029 439.099 312.029H435.176C434.89 312.029 434.657 311.797 434.657 311.51V301.398ZM461.467 300.879C461.181 300.879 460.949 301.112 460.949 301.398V311.51C460.949 311.797 461.181 312.029 461.467 312.029H465.39C465.677 312.029 465.909 311.797 465.909 311.51V301.398C465.909 301.112 465.677 300.879 465.39 300.879H461.467Z" fill="#47C8C0"/>
<path id="Vector 6" d="M459.422 325.656H441.145C440.904 325.656 440.695 325.822 440.64 326.056L436.792 342.362C436.715 342.688 436.962 343 437.297 343H463.269C463.604 343 463.851 342.688 463.774 342.362L459.927 326.056C459.871 325.822 459.662 325.656 459.422 325.656Z" fill="#47C8C0"/>
<path id="Intersect" fill-rule="evenodd" clip-rule="evenodd" d="M462.771 325.656C462.908 325.656 463.04 325.711 463.137 325.808L472.209 334.87C472.412 335.073 472.412 335.402 472.209 335.604L467.682 340.127C467.479 340.329 467.151 340.329 466.949 340.127L463.371 336.553C463.3 336.483 463.252 336.393 463.231 336.295L461.083 326.284C461.014 325.961 461.26 325.656 461.59 325.656H462.771Z" fill="#47C8C0"/>
<path id="Intersect_2" fill-rule="evenodd" clip-rule="evenodd" d="M437.766 325.656C437.629 325.656 437.497 325.711 437.4 325.808L428.328 334.87C428.125 335.073 428.125 335.402 428.328 335.604L432.855 340.127C433.058 340.329 433.386 340.329 433.589 340.127L437.166 336.553C437.237 336.483 437.286 336.393 437.307 336.295L439.454 326.284C439.523 325.961 439.277 325.656 438.947 325.656H437.766Z" fill="#47C8C0"/>
</g>
</g>
<g id="allBallon">
<g id="ballon">
<path id="Vector 5" d="M775.875 218.375V49.75H122.875V218.375H419.5L450.5 250.5L482.625 218.375H775.875Z" fill="white"/>
<g id="dot">
<path id="Vector" d="M370.247 56.3719C367.688 58.7546 368.747 62.77 372.189 63.9172C375.586 65.0203 379.072 61.0932 377.704 57.6957C376.557 54.9158 372.542 54.2098 370.247 56.3719Z" fill="#E1E1E1"/>
<path id="Vector_2" d="M395.749 56.3719C393.323 58.8429 394.382 62.8141 397.779 63.9172C399.103 64.3585 399.544 64.3144 400.779 63.6084C401.529 63.123 402.544 62.0199 402.985 61.1374C403.735 59.5489 403.735 59.4165 402.897 57.828C401.397 54.8717 397.955 54.1657 395.749 56.3719Z" fill="#E1E1E1"/>
<path id="Vector_3" d="M422.487 55.6218C420.81 56.5484 420.06 57.8281 420.06 59.6372C420.06 62.6818 423.502 65.1086 425.972 63.829C428.84 62.3729 429.855 60.0784 428.664 57.6074C427.605 55.3129 424.649 54.3863 422.487 55.6218Z" fill="#E1E1E1"/>
<path id="Vector_4" d="M447.371 56.3278C444.9 58.534 445.739 62.3729 449.048 63.7408C450.813 64.4909 451.739 64.2703 453.504 62.8141C454.475 62.0199 454.783 61.358 454.828 59.8578C455.004 55.7542 450.46 53.5921 447.371 56.3278Z" fill="#E1E1E1"/>
<path id="Vector_5" d="M473.667 55.6218C472.344 56.4161 471.638 57.1662 471.461 58.1811C471.373 58.6664 471.197 59.2401 471.02 59.4607C470.888 59.6813 470.976 59.9902 471.197 60.1667C471.461 60.299 471.55 60.6962 471.417 61.005C471.108 61.7552 473.888 64.0496 475.344 64.2261C476.668 64.4026 479.227 62.7259 479.977 61.1374C481.698 57.6074 477.153 53.6362 473.667 55.6218Z" fill="#E1E1E1"/>
<path id="Vector_6" d="M358.423 68.418C356.526 69.3446 355.996 72.8305 357.452 74.6837C358.776 76.3604 360.276 76.8458 362.085 76.2722C364.512 75.4779 365.703 72.3892 364.468 70.0506C363.497 68.2415 360.453 67.4472 358.423 68.418Z" fill="#E1E1E1"/>
<path id="Vector_7" d="M384.101 68.5062C382.69 69.124 381.675 70.7566 381.675 72.5216C381.675 73.8895 383.572 76.0957 385.028 76.4487C387.719 77.1547 390.499 75.0367 390.499 72.301C390.499 70.4477 389.837 69.3446 388.293 68.5504C386.749 67.7561 385.866 67.7561 384.101 68.5062Z" fill="#E1E1E1"/>
<path id="Vector_8" d="M410.045 68.3739C407.75 69.0357 406.956 72.5657 408.633 74.6837C409.957 76.3604 411.457 76.8458 413.266 76.2722C414.986 75.6986 416.089 74.1542 416.089 72.301C416.089 70.4477 415.428 69.3446 413.883 68.5504C412.471 67.8002 412.074 67.8002 410.045 68.3739Z" fill="#E1E1E1"/>
<path id="Vector_9" d="M435.282 68.5062C433.87 69.124 432.855 70.7566 432.855 72.5216C432.855 73.8895 434.753 76.0957 436.209 76.4487C438.9 77.1547 441.68 75.0367 441.68 72.301C441.68 70.3595 440.974 69.2122 439.253 68.5062C437.444 67.7561 437.003 67.7561 435.282 68.5062Z" fill="#E1E1E1"/>
<path id="Vector_10" d="M461.313 68.5062C459.946 69.0799 458.887 70.7566 458.887 72.301C458.887 75.0808 461.755 77.1547 464.446 76.2722C468.02 75.0808 468.152 69.6094 464.578 68.3739C462.858 67.8002 462.946 67.8002 461.313 68.5062Z" fill="#E1E1E1"/>
<path id="Vector_11" d="M370.6 81.9642C368.968 83.641 368.88 85.8031 370.38 87.4357C372.453 89.642 375.365 89.5537 376.866 87.171C378.013 85.3177 377.66 83.5086 375.939 81.876C374.13 80.2434 372.277 80.2875 370.6 81.9642Z" fill="#E1E1E1"/>
<path id="Vector_12" d="M396.014 81.7878C394.426 83.3321 394.47 86.465 396.058 87.9652C398.308 90.0391 401.441 89.1125 402.412 86.1561C403.779 82.0966 398.97 78.7873 396.014 81.7878Z" fill="#E1E1E1"/>
<path id="Vector_13" d="M421.781 82.0525C419.972 83.9499 420.016 86.0679 421.869 87.7887C424.163 89.9067 427.119 89.3772 428.267 86.5974C428.796 85.3177 428.796 84.8765 428.267 83.5969C426.987 80.464 423.943 79.758 421.781 82.0525Z" fill="#E1E1E1"/>
<path id="Vector_14" d="M448.518 81.2141C447.062 82.0084 446.533 82.9791 446.533 84.9647C446.533 87.3916 447.989 89.0683 450.062 89.0683C452.004 89.0683 453.019 88.4064 453.945 86.5091C454.651 85.0088 454.651 84.7882 453.989 83.3762C452.798 80.8611 450.68 80.0228 448.518 81.2141Z" fill="#E1E1E1"/>
<path id="Vector_15" d="M473.005 82.0084C471.241 83.9057 471.241 85.8472 472.961 87.7005C475.079 89.9508 478.256 89.4655 479.447 86.6415C479.932 85.4942 479.932 84.8765 479.535 83.6851C478.829 81.6554 478.124 81.0818 476.094 80.817C474.55 80.5964 474.197 80.7288 473.005 82.0084Z" fill="#E1E1E1"/>
<path id="Vector_16" d="M359.085 94.7604C355.158 96.7461 357.364 102.747 361.6 101.688C364.335 100.982 365.35 97.805 363.585 95.5988C362.482 94.1427 360.85 93.8779 359.085 94.7604Z" fill="#E1E1E1"/>
<path id="Vector_17" d="M384.366 94.6281C381.895 95.6871 381.542 98.6875 383.66 100.806C385.16 102.306 387.146 102.217 388.778 100.585C390.367 98.9964 390.411 97.4962 388.955 95.7753C387.631 94.2309 386.219 93.8338 384.366 94.6281Z" fill="#E1E1E1"/>
<path id="Vector_18" d="M410.265 94.7604C406.824 96.4813 408.015 101.865 411.853 101.865C415.03 101.865 416.795 98.158 414.765 95.5988C413.662 94.1427 412.03 93.8338 410.265 94.7604Z" fill="#E1E1E1"/>
<path id="Vector_19" d="M434.576 95.2017C433.032 96.4372 433.12 99.3935 434.752 100.806C436.473 102.262 438.326 102.173 439.959 100.585C441.547 98.9964 441.591 97.4962 440.091 95.7312C439.209 94.628 438.591 94.3633 437.267 94.3633C436.297 94.3633 435.193 94.7163 434.576 95.2017Z" fill="#E1E1E1"/>
<path id="Vector_20" d="M460.608 95.2017C459.769 95.8635 459.549 96.4813 459.549 98.1139C459.549 99.7465 459.769 100.364 460.608 101.026C463.079 103.056 466.829 101.291 466.829 98.1139C466.829 94.9369 463.079 93.1719 460.608 95.2017Z" fill="#E1E1E1"/>
<path id="Vector_21" d="M371.13 107.91C370.601 108.351 370.071 109.454 369.939 110.336C369.409 113.513 373.027 115.367 375.675 113.293C378.145 111.351 376.557 107.159 373.292 107.159C372.63 107.159 371.66 107.512 371.13 107.91Z" fill="#E1E1E1"/>
<path id="Vector_22" d="M396.455 108.263C394.117 110.557 395.97 114.572 399.147 114.087C401.22 113.734 401.97 112.852 401.97 110.734C401.97 107.557 398.617 106.056 396.455 108.263Z" fill="#E1E1E1"/>
<path id="Vector_23" d="M422.795 107.468C422.09 107.733 420.942 109.939 420.942 111.042C420.942 112.41 422.928 114.219 424.472 114.219C427.649 114.219 429.281 109.983 426.855 108.086C425.752 107.204 424.075 106.939 422.795 107.468Z" fill="#E1E1E1"/>
<path id="Vector_24" d="M448.077 108.263C447.371 108.924 446.974 109.851 446.974 110.689C446.974 112.278 448.651 114.219 450.018 114.219C451.563 114.219 453.063 113.425 453.416 112.366C453.989 110.734 453.636 109.233 452.445 108.13C450.989 106.851 449.401 106.895 448.077 108.263Z" fill="#E1E1E1"/>
<path id="Vector_25" d="M473.712 108.13C472.035 109.675 471.858 111.572 473.182 113.028C475.344 115.367 479.183 113.866 479.183 110.689C479.183 109.013 477.462 107.159 475.918 107.159C475.3 107.159 474.329 107.601 473.712 108.13Z" fill="#E1E1E1"/>
<path id="Vector_26" d="M359.217 120.529C357.188 121.544 357.143 125.03 359.129 126.089C360.629 126.927 362.129 126.663 363.1 125.427C364.335 123.839 364.247 122.78 362.747 121.235C361.291 119.823 360.806 119.691 359.217 120.529Z" fill="#E1E1E1"/>
<path id="Vector_27" d="M384.984 120.397C381.63 121.721 382.469 126.618 386.043 126.574C387.366 126.53 388.381 125.868 389.131 124.456C390.322 122.206 387.454 119.382 384.984 120.397Z" fill="#E1E1E1"/>
<path id="Vector_28" d="M410.795 120.264C409.559 120.75 408.942 121.765 408.898 123.265C408.854 125.251 410.045 126.574 411.898 126.574C413.486 126.574 414.545 125.604 414.986 123.839C415.251 122.868 415.031 122.382 413.972 121.279C412.648 119.956 412.074 119.779 410.795 120.264Z" fill="#E1E1E1"/>
<path id="Vector_29" d="M434.841 121.279C432.988 123.353 434.4 126.574 437.135 126.574C438.724 126.574 439.43 126.089 440.268 124.5C441.812 121.632 437.091 118.808 434.841 121.279Z" fill="#E1E1E1"/>
<path id="Vector_30" d="M460.872 121.279C459.063 123.309 460.431 126.574 463.078 126.574C464.799 126.574 466.078 125.251 466.078 123.486C466.078 121.721 464.799 120.397 463.078 120.397C462.24 120.397 461.357 120.75 460.872 121.279Z" fill="#E1E1E1"/>
<path id="Vector_31" d="M372.41 133.767C371.792 134.076 371.042 134.826 370.689 135.488C370.071 136.591 370.071 136.767 370.909 137.914C372.233 139.679 374.219 139.812 375.454 138.223C376.645 136.723 376.645 135.796 375.41 134.649C373.866 133.281 373.557 133.193 372.41 133.767Z" fill="#E1E1E1"/>
<path id="Vector_32" d="M396.764 134.208C395.838 135.311 395.661 137.12 396.411 138.267C397.382 139.723 399.853 139.812 400.823 138.4C402.323 136.282 401.132 133.634 398.705 133.634C397.867 133.634 397.029 133.899 396.764 134.208Z" fill="#E1E1E1"/>
<path id="Vector_33" d="M422.355 134.826C421.869 135.532 421.472 136.238 421.472 136.502C421.472 137.65 423.281 139.37 424.428 139.37C427.031 139.37 428.267 136.855 426.678 134.826C425.399 133.193 423.502 133.193 422.355 134.826Z" fill="#E1E1E1"/>
<path id="Vector_34" d="M448.297 134.605C447.194 135.796 447.15 137.208 448.209 138.488C449.798 140.474 453.151 139.15 453.151 136.547C453.151 133.899 450.106 132.664 448.297 134.605Z" fill="#E1E1E1"/>
<path id="Vector_35" d="M473.711 134.605C471.858 137.252 474.241 140.518 477.02 139.106C477.682 138.797 478.344 137.958 478.476 137.341C479.182 134.605 475.256 132.355 473.711 134.605Z" fill="#E1E1E1"/>
<path id="Vector_36" d="M139.759 56.3278C138.832 57.2986 138.567 58.0046 138.567 59.5931C138.567 61.9758 139.362 63.0789 141.788 63.8731C143.244 64.3585 143.553 64.3144 144.744 63.476C146.597 62.1523 147.392 60.8727 147.392 59.1518C147.392 55.4895 142.318 53.6362 139.759 56.3278Z" fill="#E1E1E1"/>
<path id="Vector_37" d="M164.908 56.3278C162.79 58.534 163.54 62.417 166.32 63.5643C168.702 64.535 169.32 64.4467 171.173 62.6818C173.512 60.4755 173.688 58.3575 171.703 56.3719C170.6 55.3129 170.026 55.0923 168.261 55.0923C166.452 55.0923 165.879 55.3129 164.908 56.3278Z" fill="#E1E1E1"/>
<path id="Vector_38" d="M190.939 56.3278C190.013 57.2986 189.748 58.0046 189.748 59.5489C189.748 61.9758 190.63 63.2995 192.66 63.8732C195.793 64.7557 198.572 62.4612 198.572 59.0636C198.572 55.4895 193.454 53.6804 190.939 56.3278Z" fill="#E1E1E1"/>
<path id="Vector_39" d="M216.088 56.3278C213.75 58.7547 214.853 62.8142 218.206 63.9173C219.397 64.3144 219.971 64.2703 221.03 63.7408C224.295 62.0199 225.133 58.6664 222.883 56.372C221.78 55.313 221.206 55.0923 219.442 55.0923C217.633 55.0923 217.059 55.313 216.088 56.3278Z" fill="#E1E1E1"/>
<path id="Vector_40" d="M242.076 56.3719C240.928 57.5633 240.84 57.9163 241.017 59.9019C241.281 62.3729 241.811 63.123 244.105 63.8731C245.914 64.4909 247.105 64.0938 248.517 62.4612C249.576 61.2698 249.885 60.1225 249.576 58.4017C248.914 55.0482 244.458 53.901 242.076 56.3719Z" fill="#E1E1E1"/>
<path id="Vector_41" d="M267.71 56.3278C265.371 58.7547 266.474 62.8141 269.828 63.9172C271.593 64.4909 273.357 63.7849 274.902 61.8434C276.181 60.2108 275.872 57.5192 274.24 56.1072C272.475 54.5628 269.254 54.6952 267.71 56.3278Z" fill="#E1E1E1"/>
<path id="Vector_42" d="M293.477 56.2395C290.874 58.4458 291.977 62.77 295.418 63.9173C298.86 65.0645 301.948 61.2698 300.492 57.6957C299.301 54.8717 295.903 54.1657 293.477 56.2395Z" fill="#E1E1E1"/>
<path id="Vector_43" d="M318.979 56.3719C316.552 58.7988 317.611 62.8142 321.008 63.9173C322.773 64.4909 324.538 63.7849 326.038 61.8875C328.288 59.0194 326.082 55.1364 322.2 55.0923C320.655 55.0923 320.038 55.3571 318.979 56.3719Z" fill="#E1E1E1"/>
<path id="Vector_44" d="M344.569 56.3719C342.143 58.7988 343.201 62.8141 346.599 63.9172C350.04 65.0645 353.438 60.9609 351.717 57.7398C350.173 54.8276 346.775 54.1657 344.569 56.3719Z" fill="#E1E1E1"/>
<path id="Vector_45" d="M127.493 68.5504C123.787 70.5801 125.42 76.2722 129.743 76.2722C133.45 76.2722 135.303 71.3744 132.567 68.8593C131.288 67.7561 129.214 67.6238 127.493 68.5504Z" fill="#E1E1E1"/>
<path id="Vector_46" d="M153.084 68.5504C151.628 69.3446 150.833 71.1537 151.186 72.9628C151.539 74.9926 152.731 75.9192 155.201 76.1398C157.01 76.3163 157.496 76.1839 158.555 75.2132C160.408 73.4923 160.319 70.889 158.378 69.0799C156.922 67.7561 154.937 67.5355 153.084 68.5504Z" fill="#E1E1E1"/>
<path id="Vector_47" d="M179.115 68.5062C176.776 69.83 176.424 73.1835 178.365 75.2573C179.777 76.8017 182.821 76.6693 184.409 75.0367C185.468 74.0218 185.645 73.4923 185.557 71.9038C185.468 70.7125 185.115 69.6976 184.586 69.124C183.439 67.9767 180.615 67.6679 179.115 68.5062Z" fill="#E1E1E1"/>
<path id="Vector_48" d="M204.485 68.3739C203.999 68.6386 203.249 69.4329 202.808 70.1388C201.882 71.7273 202.146 73.3599 203.602 75.0808C205.014 76.7134 208.235 76.8017 209.823 75.1691C211.368 73.6688 211.368 70.6683 209.867 69.2564C208.676 68.1091 205.897 67.6679 204.485 68.3739Z" fill="#E1E1E1"/>
<path id="Vector_49" d="M230.383 68.4621C227.957 69.8741 227.471 72.8746 229.369 74.9484C230.692 76.4928 232.457 76.7575 234.663 75.8751C237.046 74.9043 237.663 71.6832 235.943 69.5211C234.796 68.0209 232.06 67.5355 230.383 68.4621Z" fill="#E1E1E1"/>
<path id="Vector_50" d="M255.709 68.418C254.253 69.2564 253.768 70.2271 253.724 72.1245C253.724 75.3456 256.768 77.2871 259.768 76.0516C263.651 74.419 262.636 68.5504 258.356 68.065C257.386 67.9767 256.194 68.1091 255.709 68.418Z" fill="#E1E1E1"/>
<path id="Vector_51" d="M281.476 68.5504C278.078 70.4036 279.314 76.2722 283.108 76.3604C286.152 76.4487 288.094 74.8602 288.094 72.301C288.138 68.9475 284.52 66.8736 281.476 68.5504Z" fill="#E1E1E1"/>
<path id="Vector_52" d="M306.846 68.418C304.728 69.4329 304.287 72.8305 306.007 74.8602C308.61 77.9489 313.287 76.2722 313.287 72.301C313.287 70.4477 312.625 69.3446 311.081 68.5504C309.625 67.8002 308.213 67.7561 306.846 68.418Z" fill="#E1E1E1"/>
<path id="Vector_53" d="M332.745 68.5062C330.406 69.83 329.833 72.7863 331.598 74.8602C334.245 77.993 339.319 76.3163 339.319 72.3009C339.319 70.4477 338.657 69.3446 337.113 68.5503C335.568 67.7561 334.157 67.712 332.745 68.5062Z" fill="#E1E1E1"/>
<path id="Vector_54" d="M140.112 81.7878C138.479 83.3762 138.567 86.0678 140.288 87.7887C140.994 88.4947 142.009 89.0683 142.494 89.0683C144.877 89.0683 146.95 86.9503 146.95 84.4794C146.95 83.9057 146.421 82.8026 145.803 82.0525C144.303 80.2434 141.744 80.111 140.112 81.7878Z" fill="#E1E1E1"/>
<path id="Vector_55" d="M165.437 81.9643C162.172 85.2736 165.79 90.5245 169.849 88.4065C171.173 87.7446 172.541 85.759 172.541 84.4794C172.541 84.1264 171.923 83.1115 171.173 82.229C169.364 80.1993 167.334 80.111 165.437 81.9643Z" fill="#E1E1E1"/>
<path id="Vector_56" d="M191.292 81.7877C190.454 82.582 190.189 83.3321 190.189 84.8324C190.189 86.465 190.41 86.9503 191.557 87.9211C193.631 89.6861 196.234 89.2448 197.469 86.9062C198.484 84.9206 198.308 83.4204 196.852 81.9642C195.175 80.2875 192.837 80.1992 191.292 81.7877Z" fill="#E1E1E1"/>
<path id="Vector_57" d="M216.618 81.9643C213.926 84.7 215.691 88.8477 219.529 88.8477C221.559 88.8477 222.353 88.23 223.236 86.112C223.942 84.347 223.589 83.2439 221.912 81.7878C220.103 80.2875 218.25 80.3317 216.618 81.9643Z" fill="#E1E1E1"/>
<path id="Vector_58" d="M242.473 81.7878C241.634 82.582 241.37 83.3321 241.37 84.8324C241.37 86.465 241.59 86.9504 242.737 87.9211C244.899 89.7744 247.37 89.3331 248.65 86.8621C249.664 84.9206 249.488 83.4204 248.032 81.9643C246.355 80.2875 244.017 80.1993 242.473 81.7878Z" fill="#E1E1E1"/>
<path id="Vector_59" d="M268.24 81.9643C265.063 85.1854 268.504 90.3038 272.784 88.6712C274.064 88.1859 275.343 86.1561 275.343 84.6118C275.343 84.1264 274.681 83.0233 273.843 82.1849C271.902 80.2434 270.049 80.1552 268.24 81.9643Z" fill="#E1E1E1"/>
<path id="Vector_60" d="M293.653 81.7878C292.815 82.582 292.55 83.3321 292.55 84.8324C292.55 86.465 292.771 86.9504 293.918 87.9211C296.036 89.7302 298.595 89.2448 299.83 86.818C301.992 82.7144 296.874 78.5667 293.653 81.7878Z" fill="#E1E1E1"/>
<path id="Vector_61" d="M319.42 81.9642C317.787 83.641 317.699 85.8031 319.199 87.4357C321.273 89.642 324.185 89.5537 325.685 87.171C326.832 85.3177 326.479 83.5086 324.758 81.876C322.949 80.2434 321.096 80.2875 319.42 81.9642Z" fill="#E1E1E1"/>
<path id="Vector_62" d="M344.834 81.7877C342.628 83.9499 343.687 88.1417 346.599 88.8918C350.702 89.9067 353.349 84.4794 350.128 81.6554C348.54 80.3316 346.246 80.3316 344.834 81.7877Z" fill="#E1E1E1"/>
<path id="Vector_63" d="M127.978 94.4957C125.64 95.687 125.331 98.7758 127.361 100.85C129.567 103.056 133.273 101.379 133.273 98.158C133.273 96.04 132.92 95.2899 131.464 94.5839C129.964 93.7897 129.39 93.7897 127.978 94.4957Z" fill="#E1E1E1"/>
<path id="Vector_64" d="M154.451 94.2309C153.436 94.5839 151.804 96.2165 152.024 96.6137C152.157 96.7901 152.069 97.0549 151.804 97.2314C151.01 97.7168 151.319 98.6875 152.73 100.32C154.495 102.306 156.172 102.394 158.025 100.585C160.055 98.5551 159.702 95.7312 157.231 94.4515C156.216 93.8779 155.51 93.8338 154.451 94.2309Z" fill="#E1E1E1"/>
<path id="Vector_65" d="M179.821 94.3633C175.497 96.0842 177.923 102.835 182.468 101.688C184.63 101.158 185.777 97.7609 184.453 95.8635C183.218 94.1427 181.585 93.6132 179.821 94.3633Z" fill="#E1E1E1"/>
<path id="Vector_66" d="M205.235 94.4957C204.617 94.7604 203.779 95.7312 203.293 96.5695C202.499 98.0257 202.499 98.1139 203.205 99.4377C204.837 102.262 207.088 102.703 209.205 100.585C211.014 98.7758 210.97 96.6137 209.117 95.0693C207.617 93.7897 206.823 93.6573 205.235 94.4957Z" fill="#E1E1E1"/>
<path id="Vector_67" d="M230.78 94.4957C228.398 95.7312 228.045 98.7316 230.119 100.805C231.663 102.35 233.604 102.217 235.237 100.497C236.251 99.3935 236.428 98.9081 236.207 97.7609C235.722 95.0252 232.942 93.3484 230.78 94.4957Z" fill="#E1E1E1"/>
<path id="Vector_68" d="M256.415 94.4516C255.797 94.7604 254.959 95.7312 254.473 96.5695C253.679 98.0257 253.679 98.1139 254.385 99.4377C254.826 100.144 255.488 101.026 255.841 101.291C257.915 102.968 261.665 100.673 261.665 97.805C261.665 95.2017 258.665 93.3043 256.415 94.4516Z" fill="#E1E1E1"/>
<path id="Vector_69" d="M281.961 94.4957C280.549 95.2017 279.579 97.1873 279.976 98.6434C280.373 100.364 282.182 101.865 283.726 101.865C285.756 101.865 287.653 99.8348 287.476 97.9374C287.256 95.2458 284.211 93.3484 281.961 94.4957Z" fill="#E1E1E1"/>
<path id="Vector_70" d="M307.596 94.4515C306.978 94.7604 306.14 95.687 305.698 96.4813C304.904 97.8933 304.904 97.9815 305.787 99.6583C306.713 101.512 308.081 102.173 309.89 101.688C311.611 101.203 312.493 100.232 312.714 98.4669C312.89 97.0549 312.758 96.4813 311.919 95.5547C310.64 94.1427 309.007 93.7455 307.596 94.4515Z" fill="#E1E1E1"/>
<path id="Vector_71" d="M333.23 94.5839C330.715 95.687 330.318 98.6434 332.48 100.806C333.98 102.306 335.965 102.217 337.598 100.585C339.23 98.9523 339.23 97.4079 337.686 95.7312C336.142 94.0986 335.039 93.7897 333.23 94.5839Z" fill="#E1E1E1"/>
<path id="Vector_72" d="M140.553 108.263C138.7 110.072 139.229 112.763 141.612 113.778C144.303 114.881 147.171 112.013 146.068 109.322C145.053 106.939 142.362 106.409 140.553 108.263Z" fill="#E1E1E1"/>
<path id="Vector_73" d="M165.702 108.263C162.878 111.042 166.143 115.411 169.761 113.69C171.526 112.852 172.32 110.998 171.659 109.322C170.644 106.895 167.555 106.365 165.702 108.263Z" fill="#E1E1E1"/>
<path id="Vector_74" d="M191.733 108.263C189.086 110.866 191.998 115.278 195.351 113.69C196.013 113.381 196.851 112.543 197.16 111.881C198.749 108.527 194.337 105.615 191.733 108.263Z" fill="#E1E1E1"/>
<path id="Vector_75" d="M216.882 108.263C214.059 111.042 217.324 115.411 220.942 113.69C221.603 113.381 222.398 112.587 222.706 111.969C224.339 108.527 219.574 105.527 216.882 108.263Z" fill="#E1E1E1"/>
<path id="Vector_76" d="M242.914 108.263C241.149 109.983 241.502 112.499 243.62 113.602C247.194 115.455 250.415 110.822 247.37 108.174C245.826 106.851 244.238 106.895 242.914 108.263Z" fill="#E1E1E1"/>
<path id="Vector_77" d="M268.504 108.263C267.181 109.542 267.048 111.528 268.239 112.94C269.342 114.308 272.299 114.396 273.622 113.072C274.99 111.704 274.858 109.454 273.402 108.174C271.813 106.851 269.872 106.851 268.504 108.263Z" fill="#E1E1E1"/>
<path id="Vector_78" d="M294.094 108.263C292.065 110.248 293.08 113.469 295.859 114.043C299.124 114.661 301.065 110.16 298.462 108.086C296.918 106.851 295.418 106.939 294.094 108.263Z" fill="#E1E1E1"/>
<path id="Vector_79" d="M319.685 108.263C317.567 110.336 318.67 113.558 321.67 114.043C323.921 114.396 325.641 112.984 325.641 110.689C325.641 107.512 321.935 106.012 319.685 108.263Z" fill="#E1E1E1"/>
<path id="Vector_80" d="M345.275 108.263C344.569 108.924 344.172 109.851 344.172 110.689C344.172 112.278 345.848 114.219 347.304 114.219C347.79 114.219 348.805 113.866 349.511 113.469C350.614 112.807 350.79 112.41 350.79 110.866C350.79 107.557 347.481 106.012 345.275 108.263Z" fill="#E1E1E1"/>
<path id="Vector_81" d="M128.861 120.264C125.596 121.456 126.126 126.574 129.523 126.574C131.067 126.574 132.832 124.721 132.832 123.088C132.832 121.853 131.861 120.397 131.067 120.397C130.847 120.397 130.45 120.309 130.097 120.22C129.788 120.088 129.214 120.132 128.861 120.264Z" fill="#E1E1E1"/>
<path id="Vector_82" d="M154.451 120.309C152.113 121.059 151.584 123.53 153.348 125.427C154.672 126.883 156.349 126.927 157.761 125.471C158.952 124.324 159.172 122.736 158.334 121.588C157.672 120.75 155.422 120 154.451 120.309Z" fill="#E1E1E1"/>
<path id="Vector_83" d="M205.411 120.397C203.293 121.191 202.896 123.662 204.528 125.427C205.852 126.883 207.529 126.927 208.94 125.471C210.132 124.324 210.352 122.736 209.514 121.588C208.764 120.618 206.558 120 205.411 120.397Z" fill="#E1E1E1"/>
<path id="Vector_84" d="M282.843 120.264C279.578 121.456 280.108 126.574 283.549 126.574C284.741 126.574 287.255 124.412 287.255 123.397C287.255 122.559 285.402 120.485 284.388 120.264C283.902 120.132 283.196 120.132 282.843 120.264Z" fill="#E1E1E1"/>
<path id="Vector_85" d="M307.551 120.529C306.669 120.971 306.404 121.456 306.316 123.133C306.184 124.853 306.36 125.295 307.198 125.868C308.61 126.883 310.066 126.751 311.302 125.471C312.758 124.059 312.669 122.824 311.125 121.235C309.669 119.823 309.184 119.691 307.551 120.529Z" fill="#E1E1E1"/>
<path id="Vector_86" d="M333.803 120.397C330.538 121.676 331.332 126.574 334.774 126.574C335.921 126.574 338.436 124.412 338.436 123.397C338.436 122.559 336.583 120.529 335.568 120.265C335.083 120.132 334.289 120.176 333.803 120.397Z" fill="#E1E1E1"/>
<path id="Vector_87" d="M179.027 121.191C178.012 122.294 178.1 124.633 179.159 125.692C180.439 126.971 182.115 126.795 183.615 125.206C185.115 123.574 185.204 122.691 184.012 121.368C182.865 120.132 180.041 120.044 179.027 121.191Z" fill="#E1E1E1"/>
<path id="Vector_88" d="M230.207 121.191C228.487 123.088 229.898 126.574 232.369 126.574C233.649 126.574 236.075 124.28 236.075 123.088C236.075 120.838 231.752 119.47 230.207 121.191Z" fill="#E1E1E1"/>
<path id="Vector_89" d="M255.533 121.015C255.224 121.368 254.915 122.25 254.827 122.956C254.606 124.633 256.283 126.574 257.915 126.574C259.195 126.574 261.224 124.809 261.224 123.706C261.224 122.824 260.386 121.191 259.724 120.75C258.886 120.176 256.062 120.353 255.533 121.015Z" fill="#E1E1E1"/>
<path id="Vector_90" d="M140.994 134.296C138.964 136.282 140.156 139.37 142.891 139.37C145.406 139.37 146.597 135.929 144.744 134.076C143.553 132.884 142.274 132.972 140.994 134.296Z" fill="#E1E1E1"/>
<path id="Vector_91" d="M166.32 134.473C164.776 136.061 164.732 136.855 166.143 138.267C167.467 139.635 169.011 139.679 170.247 138.356C171.526 137.032 171.482 135.62 170.114 134.296C168.702 132.884 167.908 132.928 166.32 134.473Z" fill="#E1E1E1"/>
<path id="Vector_92" d="M192.219 134.252C190.145 136.282 191.16 139.37 193.896 139.37C195.66 139.37 196.808 138.223 196.808 136.458C196.808 134.782 196.058 133.767 194.513 133.414C193.587 133.193 193.057 133.37 192.219 134.252Z" fill="#E1E1E1"/>
<path id="Vector_93" d="M217.544 134.473C216 136.017 215.912 136.635 217.147 138.223C218.294 139.679 220.147 139.723 221.427 138.356C222.618 137.12 222.662 135.796 221.648 134.605C220.28 133.017 219 132.972 217.544 134.473Z" fill="#E1E1E1"/>
<path id="Vector_94" d="M243.355 134.296C241.325 136.282 242.384 139.37 245.076 139.37C246.841 139.37 247.988 138.223 247.988 136.458C247.988 134.914 247.635 134.384 246.355 133.678C244.987 132.972 244.546 133.061 243.355 134.296Z" fill="#E1E1E1"/>
<path id="Vector_95" d="M269.122 134.473C267.622 136.017 267.534 136.635 268.769 138.223C269.343 138.973 270.093 139.37 270.931 139.37C272.299 139.37 274.019 137.65 274.019 136.282C274.019 135.488 271.681 133.193 270.843 133.193C270.622 133.193 269.828 133.767 269.122 134.473Z" fill="#E1E1E1"/>
<path id="Vector_96" d="M294.536 134.296C292.506 136.282 293.565 139.37 296.3 139.37C299.08 139.37 300.227 135.841 298.021 134.12C296.521 132.928 295.815 132.972 294.536 134.296Z" fill="#E1E1E1"/>
<path id="Vector_97" d="M320.302 134.473C318.802 136.017 318.714 136.635 319.949 138.223C320.523 138.973 321.273 139.37 322.111 139.37C323.479 139.37 325.2 137.65 325.2 136.282C325.2 135.488 322.861 133.193 322.023 133.193C321.802 133.193 321.008 133.767 320.302 134.473Z" fill="#E1E1E1"/>
<path id="Vector_98" d="M345.716 134.296C343.687 136.282 344.746 139.37 347.481 139.37C350.261 139.37 351.408 135.841 349.202 134.12C347.702 132.928 346.996 132.972 345.716 134.296Z" fill="#E1E1E1"/>
<path id="Vector_99" d="M728.812 56.3719C726.253 58.7546 727.312 62.77 730.753 63.9172C734.151 65.0203 737.636 61.0932 736.268 57.6957C735.121 54.9158 731.106 54.2098 728.812 56.3719Z" fill="#E1E1E1"/>
<path id="Vector_100" d="M754.314 56.3719C751.888 58.8429 752.947 62.8141 756.344 63.9172C757.668 64.3585 758.109 64.3144 759.344 63.6084C760.094 63.123 761.109 62.0199 761.55 61.1374C762.3 59.5489 762.3 59.4165 761.462 57.828C759.962 54.8717 756.52 54.1657 754.314 56.3719Z" fill="#E1E1E1"/>
<path id="Vector_101" d="M716.987 68.418C715.09 69.3446 714.561 72.8305 716.017 74.6837C717.34 76.3604 718.841 76.8458 720.65 76.2722C723.076 75.4779 724.267 72.3892 723.032 70.0506C722.061 68.2415 719.017 67.4472 716.987 68.418Z" fill="#E1E1E1"/>
<path id="Vector_102" d="M742.666 68.5062C741.254 69.124 740.239 70.7566 740.239 72.5216C740.239 73.8895 742.136 76.0957 743.592 76.4487C746.284 77.1547 749.063 75.0367 749.063 72.301C749.063 70.4477 748.402 69.3446 746.857 68.5504C745.313 67.7561 744.431 67.7561 742.666 68.5062Z" fill="#E1E1E1"/>
<path id="Vector_103" d="M768.609 68.3739C766.315 69.0357 765.521 72.5657 767.197 74.6837C768.521 76.3604 770.021 76.8458 771.83 76.2722C773.551 75.6986 774.654 74.1542 774.654 72.301C774.654 70.4477 773.992 69.3446 772.448 68.5504C771.036 67.8002 770.639 67.8002 768.609 68.3739Z" fill="#E1E1E1"/>
<path id="Vector_104" d="M729.165 81.9642C727.532 83.641 727.444 85.8031 728.944 87.4357C731.018 89.642 733.93 89.5537 735.43 87.171C736.577 85.3177 736.224 83.5086 734.504 81.876C732.695 80.2434 730.841 80.2875 729.165 81.9642Z" fill="#E1E1E1"/>
<path id="Vector_105" d="M754.579 81.7878C752.99 83.3321 753.034 86.465 754.623 87.9652C756.873 90.0391 760.006 89.1125 760.976 86.1561C762.344 82.0966 757.535 78.7873 754.579 81.7878Z" fill="#E1E1E1"/>
<path id="Vector_106" d="M717.649 94.7604C713.723 96.7461 715.929 102.747 720.164 101.688C722.9 100.982 723.914 97.805 722.15 95.5988C721.047 94.1427 719.414 93.8779 717.649 94.7604Z" fill="#E1E1E1"/>
<path id="Vector_107" d="M742.931 94.6281C740.46 95.6871 740.107 98.6875 742.225 100.806C743.725 102.306 745.71 102.217 747.343 100.585C748.931 98.9964 748.975 97.4962 747.519 95.7753C746.195 94.2309 744.784 93.8338 742.931 94.6281Z" fill="#E1E1E1"/>
<path id="Vector_108" d="M768.83 94.7604C765.388 96.4813 766.579 101.865 770.418 101.865C773.595 101.865 775.359 98.158 773.33 95.5988C772.227 94.1427 770.594 93.8338 768.83 94.7604Z" fill="#E1E1E1"/>
<path id="Vector_109" d="M729.695 107.91C729.165 108.351 728.636 109.454 728.503 110.336C727.974 113.513 731.592 115.367 734.239 113.293C736.71 111.351 735.121 107.159 731.856 107.159C731.195 107.159 730.224 107.512 729.695 107.91Z" fill="#E1E1E1"/>
<path id="Vector_110" d="M755.02 108.263C752.682 110.557 754.535 114.572 757.711 114.087C759.785 113.734 760.535 112.852 760.535 110.734C760.535 107.557 757.182 106.056 755.02 108.263Z" fill="#E1E1E1"/>
<path id="Vector_111" d="M717.782 120.529C715.752 121.544 715.708 125.03 717.693 126.089C719.193 126.927 720.694 126.663 721.664 125.427C722.9 123.839 722.811 122.78 721.311 121.235C719.855 119.823 719.37 119.691 717.782 120.529Z" fill="#E1E1E1"/>
<path id="Vector_112" d="M743.549 120.397C740.195 121.721 741.034 126.618 744.607 126.574C745.931 126.53 746.946 125.868 747.696 124.456C748.887 122.206 746.019 119.382 743.549 120.397Z" fill="#E1E1E1"/>
<path id="Vector_113" d="M769.359 120.264C768.124 120.75 767.506 121.765 767.462 123.265C767.418 125.251 768.609 126.574 770.462 126.574C772.051 126.574 773.11 125.604 773.551 123.839C773.816 122.868 773.595 122.382 772.536 121.279C771.212 119.956 770.639 119.779 769.359 120.264Z" fill="#E1E1E1"/>
<path id="Vector_114" d="M730.974 133.767C730.356 134.076 729.606 134.826 729.253 135.488C728.636 136.591 728.636 136.767 729.474 137.914C730.798 139.679 732.783 139.812 734.018 138.223C735.21 136.723 735.21 135.796 733.974 134.649C732.43 133.281 732.121 133.193 730.974 133.767Z" fill="#E1E1E1"/>
<path id="Vector_115" d="M755.329 134.208C754.402 135.311 754.226 137.12 754.976 138.267C755.946 139.723 758.417 139.812 759.388 138.4C760.888 136.282 759.697 133.634 757.27 133.634C756.432 133.634 755.593 133.899 755.329 134.208Z" fill="#E1E1E1"/>
<path id="Vector_116" d="M498.323 56.3278C497.397 57.2986 497.132 58.0046 497.132 59.5931C497.132 61.9758 497.926 63.0789 500.353 63.8731C501.809 64.3585 502.118 64.3144 503.309 63.476C505.162 62.1523 505.956 60.8727 505.956 59.1518C505.956 55.4895 500.882 53.6362 498.323 56.3278Z" fill="#E1E1E1"/>
<path id="Vector_117" d="M523.472 56.3278C521.355 58.534 522.105 62.417 524.884 63.5643C527.267 64.535 527.885 64.4467 529.738 62.6818C532.076 60.4755 532.252 58.3575 530.267 56.3719C529.164 55.3129 528.59 55.0923 526.826 55.0923C525.017 55.0923 524.443 55.3129 523.472 56.3278Z" fill="#E1E1E1"/>
<path id="Vector_118" d="M549.504 56.3278C548.577 57.2985 548.312 58.0045 548.312 59.5489C548.312 61.9758 549.195 63.2995 551.224 63.8731C554.357 64.7556 557.137 62.4611 557.137 59.0635C557.137 55.4894 552.019 53.6803 549.504 56.3278Z" fill="#E1E1E1"/>
<path id="Vector_119" d="M574.653 56.3278C572.314 58.7547 573.417 62.8141 576.771 63.9173C577.962 64.3144 578.535 64.2703 579.594 63.7408C582.859 62.0199 583.698 58.6664 581.447 56.3719C580.344 55.3129 579.771 55.0923 578.006 55.0923C576.197 55.0923 575.623 55.3129 574.653 56.3278Z" fill="#E1E1E1"/>
<path id="Vector_120" d="M600.64 56.3719C599.493 57.5633 599.405 57.9163 599.581 59.9019C599.846 62.3729 600.375 63.123 602.67 63.8731C604.479 64.4909 605.67 64.0938 607.082 62.4612C608.141 61.2698 608.449 60.1225 608.141 58.4017C607.479 55.0482 603.023 53.901 600.64 56.3719Z" fill="#E1E1E1"/>
<path id="Vector_121" d="M626.274 56.3278C623.936 58.7547 625.039 62.8141 628.392 63.9172C630.157 64.4909 631.922 63.7849 633.466 61.8434C634.746 60.2108 634.437 57.5192 632.804 56.1072C631.039 54.5628 627.819 54.6952 626.274 56.3278Z" fill="#E1E1E1"/>
<path id="Vector_122" d="M652.041 56.2395C649.438 58.4458 650.541 62.77 653.983 63.9173C657.424 65.0645 660.512 61.2698 659.056 57.6957C657.865 54.8717 654.468 54.1657 652.041 56.2395Z" fill="#E1E1E1"/>
<path id="Vector_123" d="M677.543 56.3719C675.117 58.7988 676.176 62.8142 679.573 63.9173C681.338 64.4909 683.103 63.7849 684.603 61.8875C686.853 59.0194 684.647 55.1364 680.764 55.0923C679.22 55.0923 678.602 55.3571 677.543 56.3719Z" fill="#E1E1E1"/>
<path id="Vector_124" d="M703.134 56.3719C700.707 58.7988 701.766 62.8141 705.163 63.9172C708.605 65.0645 712.002 60.9609 710.281 57.7398C708.737 54.8276 705.34 54.1657 703.134 56.3719Z" fill="#E1E1E1"/>
<path id="Vector_125" d="M486.058 68.5504C482.352 70.5801 483.984 76.2722 488.308 76.2722C492.014 76.2722 493.867 71.3744 491.132 68.8593C489.852 67.7561 487.778 67.6238 486.058 68.5504Z" fill="#E1E1E1"/>
<path id="Vector_126" d="M511.648 68.5504C510.192 69.3446 509.398 71.1537 509.751 72.9628C510.104 74.9926 511.295 75.9192 513.766 76.1398C515.575 76.3163 516.06 76.1839 517.119 75.2132C518.972 73.4923 518.884 70.889 516.943 69.0799C515.487 67.7561 513.501 67.5355 511.648 68.5504Z" fill="#E1E1E1"/>
<path id="Vector_127" d="M537.679 68.5062C535.341 69.83 534.988 73.1835 536.929 75.2573C538.341 76.8017 541.386 76.6693 542.974 75.0367C544.033 74.0218 544.209 73.4923 544.121 71.9038C544.033 70.7125 543.68 69.6976 543.15 69.124C542.003 67.9767 539.179 67.6679 537.679 68.5062Z" fill="#E1E1E1"/>
<path id="Vector_128" d="M563.049 68.3739C562.564 68.6386 561.814 69.4329 561.373 70.1388C560.446 71.7273 560.711 73.3599 562.167 75.0808C563.579 76.7134 566.799 76.8017 568.388 75.1691C569.932 73.6688 569.932 70.6683 568.432 69.2564C567.241 68.1091 564.461 67.6679 563.049 68.3739Z" fill="#E1E1E1"/>
<path id="Vector_129" d="M588.948 68.4621C586.521 69.8741 586.036 72.8745 587.933 74.9484C589.257 76.4928 591.022 76.7575 593.228 75.875C595.61 74.9043 596.228 71.6832 594.507 69.5211C593.36 68.0208 590.624 67.5355 588.948 68.4621Z" fill="#E1E1E1"/>
<path id="Vector_130" d="M614.274 68.418C612.818 69.2563 612.332 70.2271 612.288 72.1244C612.288 75.3455 615.332 77.287 618.333 76.0515C622.215 74.4189 621.201 68.5503 616.921 68.065C615.95 67.9767 614.759 68.1091 614.274 68.418Z" fill="#E1E1E1"/>
<path id="Vector_131" d="M640.041 68.5504C636.643 70.4036 637.879 76.2722 641.673 76.3604C644.717 76.4487 646.659 74.8602 646.659 72.301C646.703 68.9475 643.085 66.8736 640.041 68.5504Z" fill="#E1E1E1"/>
<path id="Vector_132" d="M665.41 68.418C663.292 69.4329 662.851 72.8305 664.572 74.8602C667.175 77.9489 671.852 76.2722 671.852 72.301C671.852 70.4477 671.19 69.3446 669.646 68.5504C668.19 67.8002 666.778 67.7561 665.41 68.418Z" fill="#E1E1E1"/>
<path id="Vector_133" d="M691.309 68.5062C688.971 69.83 688.397 72.7863 690.162 74.8602C692.809 77.993 697.883 76.3163 697.883 72.3009C697.883 70.4477 697.221 69.3446 695.677 68.5503C694.133 67.7561 692.721 67.712 691.309 68.5062Z" fill="#E1E1E1"/>
<path id="Vector_134" d="M498.677 81.7878C497.044 83.3762 497.132 86.0678 498.853 87.7887C499.559 88.4947 500.574 89.0683 501.059 89.0683C503.442 89.0683 505.515 86.9503 505.515 84.4794C505.515 83.9057 504.986 82.8026 504.368 82.0525C502.868 80.2434 500.309 80.111 498.677 81.7878Z" fill="#E1E1E1"/>
<path id="Vector_135" d="M524.002 81.9643C520.737 85.2736 524.355 90.5245 528.414 88.4065C529.738 87.7446 531.105 85.759 531.105 84.4794C531.105 84.1264 530.488 83.1115 529.738 82.229C527.929 80.1993 525.899 80.111 524.002 81.9643Z" fill="#E1E1E1"/>
<path id="Vector_136" d="M549.857 81.7877C549.019 82.582 548.754 83.3321 548.754 84.8324C548.754 86.465 548.975 86.9503 550.122 87.9211C552.195 89.6861 554.799 89.2448 556.034 86.9062C557.049 84.9206 556.872 83.4204 555.416 81.9642C553.74 80.2875 551.401 80.1992 549.857 81.7877Z" fill="#E1E1E1"/>
<path id="Vector_137" d="M575.182 81.9642C572.491 84.7 574.256 88.8477 578.094 88.8477C580.124 88.8477 580.918 88.2299 581.801 86.112C582.507 84.347 582.154 83.2439 580.477 81.7878C578.668 80.2875 576.815 80.3316 575.182 81.9642Z" fill="#E1E1E1"/>
<path id="Vector_138" d="M601.038 81.7878C600.199 82.582 599.935 83.3321 599.935 84.8324C599.935 86.465 600.155 86.9504 601.302 87.9211C603.464 89.7744 605.935 89.3331 607.215 86.8621C608.229 84.9206 608.053 83.4204 606.597 81.9643C604.92 80.2875 602.582 80.1993 601.038 81.7878Z" fill="#E1E1E1"/>
<path id="Vector_139" d="M626.804 81.9643C623.627 85.1854 627.069 90.3038 631.349 88.6712C632.628 88.1859 633.908 86.1561 633.908 84.6118C633.908 84.1264 633.246 83.0233 632.407 82.1849C630.466 80.2434 628.613 80.1552 626.804 81.9643Z" fill="#E1E1E1"/>
<path id="Vector_140" d="M652.218 81.7878C651.379 82.582 651.115 83.3321 651.115 84.8324C651.115 86.465 651.335 86.9503 652.482 87.9211C654.6 89.7302 657.159 89.2448 658.395 86.818C660.557 82.7144 655.439 78.5667 652.218 81.7878Z" fill="#E1E1E1"/>
<path id="Vector_141" d="M677.985 81.9642C676.352 83.641 676.264 85.8031 677.764 87.4357C679.838 89.642 682.75 89.5537 684.25 87.171C685.397 85.3177 685.044 83.5086 683.323 81.876C681.514 80.2434 679.661 80.2875 677.985 81.9642Z" fill="#E1E1E1"/>
<path id="Vector_142" d="M703.398 81.7877C701.192 83.9499 702.251 88.1417 705.163 88.8918C709.266 89.9067 711.914 84.4794 708.693 81.6554C707.104 80.3316 704.81 80.3316 703.398 81.7877Z" fill="#E1E1E1"/>
<path id="Vector_143" d="M486.543 94.4957C484.205 95.687 483.896 98.7758 485.926 100.85C488.132 103.056 491.838 101.379 491.838 98.158C491.838 96.04 491.485 95.2899 490.029 94.5839C488.529 93.7897 487.955 93.7897 486.543 94.4957Z" fill="#E1E1E1"/>
<path id="Vector_144" d="M513.016 94.2309C512.001 94.5839 510.368 96.2165 510.589 96.6137C510.721 96.7901 510.633 97.0549 510.368 97.2314C509.574 97.7168 509.883 98.6875 511.295 100.32C513.06 102.306 514.736 102.394 516.589 100.585C518.619 98.5551 518.266 95.7312 515.795 94.4515C514.78 93.8779 514.074 93.8338 513.016 94.2309Z" fill="#E1E1E1"/>
<path id="Vector_145" d="M538.385 94.3633C534.062 96.0842 536.488 102.835 541.033 101.688C543.195 101.158 544.342 97.7609 543.018 95.8635C541.783 94.1427 540.15 93.6132 538.385 94.3633Z" fill="#E1E1E1"/>
<path id="Vector_146" d="M563.799 94.4957C563.182 94.7604 562.343 95.7312 561.858 96.5695C561.064 98.0257 561.064 98.1139 561.77 99.4377C563.402 102.262 565.653 102.703 567.77 100.585C569.579 98.7758 569.535 96.6137 567.682 95.0693C566.182 93.7897 565.388 93.6573 563.799 94.4957Z" fill="#E1E1E1"/>
<path id="Vector_147" d="M589.345 94.4957C586.963 95.7312 586.61 98.7316 588.684 100.805C590.228 102.35 592.169 102.217 593.802 100.497C594.816 99.3935 594.993 98.9081 594.772 97.7609C594.287 95.0252 591.507 93.3484 589.345 94.4957Z" fill="#E1E1E1"/>
<path id="Vector_148" d="M614.98 94.4516C614.362 94.7604 613.524 95.7312 613.038 96.5695C612.244 98.0257 612.244 98.1139 612.95 99.4377C613.391 100.144 614.053 101.026 614.406 101.291C616.48 102.968 620.23 100.673 620.23 97.805C620.23 95.2017 617.23 93.3043 614.98 94.4516Z" fill="#E1E1E1"/>
<path id="Vector_149" d="M640.526 94.4957C639.114 95.2017 638.143 97.1873 638.54 98.6434C638.937 100.364 640.746 101.865 642.291 101.865C644.32 101.865 646.217 99.8348 646.041 97.9374C645.82 95.2458 642.776 93.3484 640.526 94.4957Z" fill="#E1E1E1"/>
<path id="Vector_150" d="M666.16 94.4515C665.542 94.7604 664.704 95.687 664.263 96.4813C663.469 97.8933 663.469 97.9815 664.351 99.6583C665.278 101.512 666.645 102.173 668.454 101.688C670.175 101.203 671.057 100.232 671.278 98.4669C671.454 97.0549 671.322 96.4813 670.484 95.5547C669.204 94.1427 667.572 93.7455 666.16 94.4515Z" fill="#E1E1E1"/>
<path id="Vector_151" d="M691.794 94.5839C689.279 95.687 688.882 98.6434 691.044 100.806C692.544 102.306 694.53 102.217 696.162 100.585C697.795 98.9523 697.795 97.4079 696.251 95.7312C694.706 94.0986 693.603 93.7897 691.794 94.5839Z" fill="#E1E1E1"/>
<path id="Vector_152" d="M499.118 108.263C497.265 110.072 497.794 112.763 500.177 113.778C502.868 114.881 505.736 112.013 504.633 109.322C503.618 106.939 500.927 106.409 499.118 108.263Z" fill="#E1E1E1"/>
<path id="Vector_153" d="M524.267 108.263C521.443 111.042 524.708 115.411 528.326 113.69C530.091 112.852 530.885 110.998 530.223 109.322C529.208 106.895 526.12 106.365 524.267 108.263Z" fill="#E1E1E1"/>
<path id="Vector_154" d="M550.298 108.263C547.651 110.866 550.563 115.278 553.916 113.69C554.578 113.381 555.416 112.543 555.725 111.881C557.313 108.527 552.901 105.615 550.298 108.263Z" fill="#E1E1E1"/>
<path id="Vector_155" d="M575.447 108.263C572.623 111.042 575.888 115.411 579.506 113.69C580.168 113.381 580.962 112.587 581.271 111.969C582.903 108.527 578.138 105.527 575.447 108.263Z" fill="#E1E1E1"/>
<path id="Vector_156" d="M601.479 108.263C599.714 109.983 600.067 112.499 602.185 113.602C605.758 115.455 608.979 110.822 605.935 108.174C604.391 106.851 602.802 106.895 601.479 108.263Z" fill="#E1E1E1"/>
<path id="Vector_157" d="M627.069 108.263C625.745 109.542 625.613 111.528 626.804 112.94C627.907 114.308 630.863 114.396 632.187 113.072C633.554 111.704 633.422 109.454 631.966 108.174C630.378 106.851 628.436 106.851 627.069 108.263Z" fill="#E1E1E1"/>
<path id="Vector_158" d="M652.659 108.263C650.629 110.248 651.644 113.469 654.424 114.043C657.689 114.661 659.63 110.16 657.027 108.086C655.483 106.851 653.982 106.939 652.659 108.263Z" fill="#E1E1E1"/>
<path id="Vector_159" d="M678.249 108.263C676.131 110.336 677.235 113.558 680.235 114.043C682.485 114.396 684.206 112.984 684.206 110.689C684.206 107.512 680.5 106.012 678.249 108.263Z" fill="#E1E1E1"/>
<path id="Vector_160" d="M703.839 108.263C703.133 108.924 702.736 109.851 702.736 110.689C702.736 112.278 704.413 114.219 705.869 114.219C706.354 114.219 707.369 113.866 708.075 113.469C709.178 112.807 709.354 112.41 709.354 110.866C709.354 107.557 706.045 106.012 703.839 108.263Z" fill="#E1E1E1"/>
<path id="Vector_161" d="M487.426 120.264C484.161 121.456 484.69 126.574 488.087 126.574C489.632 126.574 491.397 124.721 491.397 123.088C491.397 121.853 490.426 120.397 489.632 120.397C489.411 120.397 489.014 120.309 488.661 120.22C488.352 120.088 487.779 120.132 487.426 120.264Z" fill="#E1E1E1"/>
<path id="Vector_162" d="M513.016 120.309C510.677 121.059 510.148 123.53 511.913 125.427C513.236 126.883 514.913 126.927 516.325 125.471C517.516 124.324 517.737 122.736 516.899 121.588C516.237 120.75 513.987 120 513.016 120.309Z" fill="#E1E1E1"/>
<path id="Vector_163" d="M563.976 120.397C561.858 121.191 561.461 123.662 563.093 125.427C564.417 126.883 566.094 126.927 567.505 125.471C568.697 124.324 568.917 122.736 568.079 121.588C567.329 120.618 565.123 120 563.976 120.397Z" fill="#E1E1E1"/>
<path id="Vector_164" d="M641.408 120.264C638.143 121.456 638.673 126.574 642.114 126.574C643.305 126.574 645.82 124.412 645.82 123.397C645.82 122.559 643.967 120.485 642.953 120.264C642.467 120.132 641.761 120.132 641.408 120.264Z" fill="#E1E1E1"/>
<path id="Vector_165" d="M666.116 120.529C665.233 120.971 664.969 121.456 664.88 123.133C664.748 124.853 664.925 125.295 665.763 125.868C667.175 126.883 668.631 126.751 669.866 125.471C671.322 124.059 671.234 122.824 669.69 121.235C668.234 119.823 667.748 119.691 666.116 120.529Z" fill="#E1E1E1"/>
<path id="Vector_166" d="M692.368 120.397C689.103 121.676 689.897 126.574 693.338 126.574C694.485 126.574 697 124.412 697 123.397C697 122.559 695.147 120.529 694.132 120.265C693.647 120.132 692.853 120.176 692.368 120.397Z" fill="#E1E1E1"/>
<path id="Vector_167" d="M537.591 121.191C536.576 122.294 536.665 124.633 537.723 125.692C539.003 126.971 540.68 126.795 542.18 125.206C543.68 123.574 543.768 122.691 542.577 121.368C541.43 120.132 538.606 120.044 537.591 121.191Z" fill="#E1E1E1"/>
<path id="Vector_168" d="M588.772 121.191C587.051 123.088 588.463 126.574 590.934 126.574C592.213 126.574 594.64 124.28 594.64 123.088C594.64 120.838 590.316 119.47 588.772 121.191Z" fill="#E1E1E1"/>
<path id="Vector_169" d="M614.097 121.015C613.788 121.368 613.479 122.25 613.391 122.956C613.171 124.633 614.847 126.574 616.48 126.574C617.759 126.574 619.789 124.809 619.789 123.706C619.789 122.824 618.95 121.191 618.289 120.75C617.45 120.176 614.627 120.353 614.097 121.015Z" fill="#E1E1E1"/>
<path id="Vector_170" d="M499.559 134.296C497.529 136.282 498.721 139.37 501.456 139.37C503.971 139.37 505.162 135.929 503.309 134.076C502.118 132.884 500.838 132.972 499.559 134.296Z" fill="#E1E1E1"/>
<path id="Vector_171" d="M524.884 134.473C523.34 136.061 523.296 136.855 524.708 138.267C526.032 139.635 527.576 139.679 528.811 138.356C530.091 137.032 530.047 135.62 528.679 134.296C527.267 132.884 526.473 132.928 524.884 134.473Z" fill="#E1E1E1"/>
<path id="Vector_172" d="M550.783 134.252C548.71 136.282 549.725 139.37 552.46 139.37C554.225 139.37 555.372 138.223 555.372 136.458C555.372 134.782 554.622 133.767 553.078 133.414C552.151 133.193 551.622 133.37 550.783 134.252Z" fill="#E1E1E1"/>
<path id="Vector_173" d="M576.109 134.473C574.565 136.017 574.477 136.635 575.712 138.223C576.859 139.679 578.712 139.723 579.992 138.356C581.183 137.12 581.227 135.796 580.212 134.605C578.845 133.017 577.565 132.972 576.109 134.473Z" fill="#E1E1E1"/>
<path id="Vector_174" d="M601.919 134.296C599.89 136.282 600.949 139.37 603.64 139.37C605.405 139.37 606.552 138.223 606.552 136.458C606.552 134.914 606.199 134.384 604.92 133.678C603.552 132.972 603.111 133.061 601.919 134.296Z" fill="#E1E1E1"/>
<path id="Vector_175" d="M627.687 134.473C626.186 136.017 626.098 136.635 627.334 138.223C627.907 138.973 628.657 139.37 629.495 139.37C630.863 139.37 632.584 137.65 632.584 136.282C632.584 135.488 630.246 133.193 629.407 133.193C629.187 133.193 628.392 133.767 627.687 134.473Z" fill="#E1E1E1"/>
<path id="Vector_176" d="M653.1 134.296C651.07 136.282 652.129 139.37 654.865 139.37C657.644 139.37 658.792 135.841 656.586 134.12C655.085 132.928 654.38 132.972 653.1 134.296Z" fill="#E1E1E1"/>
<path id="Vector_177" d="M678.867 134.473C677.367 136.017 677.279 136.635 678.514 138.223C679.088 138.973 679.838 139.37 680.676 139.37C682.044 139.37 683.765 137.65 683.765 136.282C683.765 135.488 681.426 133.193 680.588 133.193C680.367 133.193 679.573 133.767 678.867 134.473Z" fill="#E1E1E1"/>
<path id="Vector_178" d="M704.281 134.296C702.251 136.282 703.31 139.37 706.046 139.37C708.825 139.37 709.972 135.841 707.766 134.12C706.266 132.928 705.56 132.972 704.281 134.296Z" fill="#E1E1E1"/>
</g>
<path id="inner" fill-rule="evenodd" clip-rule="evenodd" d="M789.875 197V68.3102C789.875 51.0766 776.003 37.0956 758.769 37.0508C740.222 37.0026 718.972 36.9424 695.697 36.8765C532.62 36.4146 270.08 35.6709 140.373 36.7887C123.284 36.936 109.625 50.8537 109.625 67.9429V197C109.625 214.259 123.616 228.25 140.875 228.25H417.17C417.501 228.25 417.819 228.382 418.054 228.616L446.786 257.348C448.25 258.813 450.625 258.813 452.089 257.348L480.821 228.616C481.056 228.382 481.374 228.25 481.705 228.25H758.625C775.884 228.25 789.875 214.259 789.875 197ZM768.75 196.875V69C768.75 62.0964 763.154 56.5 756.25 56.5H142.625C135.721 56.5 130.125 62.0964 130.125 69V196.875C130.125 203.779 135.721 209.375 142.625 209.375H415.582C422.213 209.375 428.571 212.009 433.26 216.697L446.786 230.223C448.25 231.688 450.625 231.688 452.089 230.223L465.615 216.697C470.304 212.009 476.662 209.375 483.293 209.375H756.25C763.154 209.375 768.75 203.779 768.75 196.875Z" fill="#E1E1E1"/>
<path id="outer" fill-rule="evenodd" clip-rule="evenodd" d="M102.625 70.25V202.625C102.625 223.336 119.414 240.125 140.125 240.125H417.17C417.501 240.125 417.819 240.257 418.054 240.491L444.134 266.572C447.063 269.501 451.812 269.501 454.741 266.572L480.821 240.491C481.056 240.257 481.374 240.125 481.705 240.125H758.75C779.461 240.125 796.25 223.336 796.25 202.625V70.25C796.25 49.5393 779.461 32.75 758.75 32.75H140.125C119.414 32.75 102.625 49.5393 102.625 70.25ZM788.75 195.5V69C788.75 51.7411 774.759 37.75 757.5 37.75H141.375C124.116 37.75 110.125 51.7411 110.125 69V195.5C110.125 212.759 124.116 226.75 141.375 226.75H417.17C417.501 226.75 417.819 226.882 418.054 227.116L446.786 255.848C448.25 257.313 450.625 257.313 452.089 255.848L480.821 227.116C481.056 226.882 481.374 226.75 481.705 226.75H757.5C774.759 226.75 788.75 212.759 788.75 195.5Z" fill="#55557B"/>
</g>
</g>
</g>
<g id="hideCircle_2">
<circle id="front14_2" cx="580" cy="358" r="5" fill="#C4C4C4"/>
<circle id="front13" cx="555" cy="346" r="5" fill="#C4C4C4"/>
<circle id="front12" cx="533.5" cy="356.5" r="7.5" fill="#C4C4C4"/>
<circle id="front11" cx="516" cy="373" r="5" fill="#C4C4C4"/>
<circle id="front10" cx="495.5" cy="348.5" r="2.5" fill="#C4C4C4"/>
<circle id="front9" cx="486.25" cy="364.25" r="6.25" fill="#C4C4C4"/>
<circle id="front8" cx="466" cy="358" r="5" fill="#C4C4C4"/>
<circle id="front1" cx="429" cy="371" r="5" fill="#C4C4C4"/>
<circle id="front2" cx="418" cy="358" r="5" fill="#C4C4C4"/>
<circle id="front3" cx="398.5" cy="377.5" r="7.5" fill="#C4C4C4"/>
<circle id="front4" cx="389" cy="348" r="5" fill="#C4C4C4"/>
<circle id="front5" cx="367" cy="368" r="10" fill="#C4C4C4"/>
<circle id="front6" cx="352.5" cy="341.5" r="2.5" fill="#C4C4C4"/>
<circle id="front7" cx="323.5" cy="350.5" r="7.5" fill="#C4C4C4"/>
</g>
</g>
</svg>
